<svg width="413" height="140" viewBox="0 0 413 140" fill="none" xmlns="http://www.w3.org/2000/svg">
<g clip-path="url(#clip0_1397_1346)">
<path d="M0 35.5895C0 23.0007 0 16.7064 2.48876 11.9153C4.586 7.87793 7.87793 4.586 11.9153 2.48876C16.7064 0 23.0007 0 35.5895 0H104.411C116.999 0 123.294 0 128.085 2.48876C132.122 4.586 135.414 7.87793 137.511 11.9153C140 16.7064 140 23.0007 140 35.5895V104.411C140 116.999 140 123.294 137.511 128.085C135.414 132.122 132.122 135.414 128.085 137.511C123.294 140 116.999 140 104.411 140H35.5895C23.0007 140 16.7064 140 11.9153 137.511C7.87793 135.414 4.586 132.122 2.48876 128.085C0 123.294 0 116.999 0 104.411V35.5895Z" fill="#040486"/>
<path d="M46.1761 76.6024C46.1179 77.6204 46.7869 78.5318 47.7855 78.7645L50.4324 79.385L53.0793 80.0055C54.0586 80.2382 55.0863 79.7146 55.4838 78.7839L57.5975 73.7131C59.7499 73.6646 61.8441 73.3253 63.8511 72.6854L67.4967 76.806C68.1753 77.5719 69.2903 77.7271 70.1532 77.2035L72.4511 75.7782L74.7489 74.353C75.6022 73.8197 75.9512 72.7435 75.5731 71.8031L73.4885 66.7129C74.9526 65.1907 76.1839 63.4649 77.1825 61.5645L82.6605 61.9136C83.6786 61.9717 84.59 61.3027 84.8227 60.3041L85.4432 57.6572L86.0637 55.0103C86.2382 54.0408 85.7243 53.0421 84.8033 52.6446L79.7325 50.531C79.684 48.3785 79.3446 46.2843 78.7047 44.2773L82.8254 40.6318C83.5913 39.9531 83.7464 38.8381 83.2229 37.9752L81.7976 35.6773L80.3724 33.3795C79.8391 32.5263 78.7629 32.1772 77.8224 32.5554L72.7323 34.6399C71.1907 33.1468 69.4261 31.8767 67.4385 30.8877L67.7778 25.4582C67.836 24.4402 67.167 23.5288 66.1684 23.2961L63.5215 22.6756L60.8746 22.055C59.8953 21.8223 58.8676 22.3459 58.4701 23.2767L56.3177 28.3863C54.1652 28.4347 52.0613 28.8226 50.0737 29.4431L46.5057 25.3128C45.827 24.5468 44.712 24.3917 43.8588 24.9152L41.561 26.3405L39.2631 27.7657C38.4099 28.299 38.0609 29.3752 38.439 30.3157L40.5332 35.4349C39.0983 36.9571 37.8573 38.683 36.8877 40.6027L31.4582 40.2633C30.4402 40.2052 29.5288 40.8742 29.2961 41.8728L28.6756 44.5197L28.055 47.1666C27.8223 48.1458 28.3459 49.1736 29.2767 49.5711L34.3863 51.7235C34.4347 53.8759 34.8226 55.9799 35.4431 57.9675L31.3515 61.5645C30.5856 62.2432 30.4305 63.3582 30.954 64.2211L32.3793 66.519L33.8045 68.8168C34.3378 69.67 35.414 70.0191 36.3545 69.6409L41.5028 67.537C42.9862 68.9429 44.6927 70.1742 46.5251 71.1341L46.1761 76.6024ZM40.8144 52.7803C40.7466 52.7803 40.7466 52.7803 40.7466 52.7803C40.3975 52.7803 40.0485 52.5767 39.9127 52.2955C39.777 52.0144 39.777 51.675 39.9127 51.3939C39.9806 51.326 40.0485 51.1903 40.1939 51.1127C40.3296 50.977 40.5429 50.8994 40.7466 50.8994C42.2785 50.8994 56.0365 50.3467 56.0365 34.3587C56.0365 33.874 56.4534 33.457 56.9382 33.457C57.4229 33.457 57.8399 33.874 57.8399 34.3587C57.8399 50.337 71.5979 50.8994 73.1977 50.8994C73.4788 50.9673 73.8182 51.1127 73.9636 51.3842C74.1672 51.6653 74.1672 52.0047 74.0315 52.2859C73.8182 52.567 73.5467 52.7706 73.1977 52.7706C71.5979 52.7706 57.9077 53.3912 57.9077 69.3016C57.9077 69.7864 57.4908 70.2033 57.006 70.2033C56.5213 70.2033 56.1043 69.7864 56.1043 69.3016C56.0947 53.333 42.4142 52.7803 40.8144 52.7803Z" fill="white"/>
<path d="M79.7615 98.2332C79.713 97.6515 79.267 97.157 78.6852 97.0698L75.4663 96.6044C75.1173 95.373 74.6131 94.229 73.9441 93.1624L75.7669 90.4574C76.1062 89.9532 76.0287 89.2842 75.6021 88.877L74.4386 87.7717L73.2751 86.6664C72.8485 86.2592 72.1698 86.2107 71.685 86.5694L69.0672 88.5183C67.9619 87.888 66.7597 87.4227 65.4702 87.1512L64.8593 83.9807C64.743 83.3893 64.2291 82.9627 63.6183 82.9821L62.0088 83.0209L60.3994 83.0596C59.808 83.0693 59.2941 83.525 59.2068 84.1165L58.7317 87.3742C57.5004 87.7232 56.3563 88.2565 55.3092 88.9061L52.6526 87.0639C52.1484 86.7246 51.4795 86.8021 51.0722 87.2287L49.9669 88.3922L48.8616 89.5557C48.4544 89.9823 48.406 90.661 48.7647 91.1458L50.7329 93.7733C50.1318 94.8592 49.6858 96.0323 49.4046 97.2734L46.2341 97.8842C45.6427 98.0005 45.2161 98.5144 45.2355 99.1252L45.2743 100.735L45.3131 102.344C45.3228 102.936 45.7784 103.449 46.3699 103.537L49.6276 104.012C49.9766 105.243 50.5099 106.387 51.1595 107.434L49.3464 110.11C49.0071 110.614 49.0846 111.283 49.5112 111.691L50.6747 112.796L51.8382 113.901C52.2648 114.308 52.9435 114.357 53.4283 113.998L56.0558 112.03C57.1126 112.612 58.2761 113.067 59.4686 113.349L60.0794 116.548C60.1958 117.14 60.7096 117.566 61.3205 117.547L62.9299 117.508L64.5394 117.469C65.1308 117.46 65.6447 117.004 65.732 116.412L66.1973 113.193C67.4287 112.844 68.5728 112.34 69.6393 111.671L72.3443 113.494C72.8485 113.833 73.5175 113.756 73.9247 113.329L75.03 112.166L76.1353 111.002C76.5425 110.576 76.591 109.897 76.2323 109.412L74.2835 106.794C74.8943 105.709 75.35 104.535 75.6408 103.285L78.8404 102.674C79.4318 102.557 79.8584 102.044 79.839 101.433L79.8002 99.8233L79.7615 98.2332ZM71.9662 101.249H71.8983C71.0451 101.249 63.3953 101.53 63.3953 110.459C63.3953 111.031 62.9687 111.448 62.5421 111.313C62.0476 111.313 61.621 110.886 61.621 110.391C61.621 101.462 54.0391 101.181 53.118 101.181C52.6235 101.181 52.1969 100.754 52.1969 100.26C52.1969 99.7651 52.5557 99.4064 53.0501 99.3385C53.0501 99.3385 53.0501 99.3385 53.118 99.3385C53.9712 99.3385 61.621 99.0574 61.621 90.1277C61.621 89.6332 62.0476 89.2066 62.5421 89.2066C63.0366 89.2066 63.4632 89.6332 63.4632 90.1277C63.4632 99.0574 71.1227 99.3385 71.9662 99.3385C72.4607 99.3385 72.8873 99.7651 72.8873 100.26C72.8873 100.822 72.4607 101.249 71.9662 101.249Z" fill="white"/>
<path d="M111.427 77.1358L108.102 76.5831C107.772 75.3033 107.278 74.1011 106.609 72.9861L108.567 70.2325C108.926 69.7187 108.868 69.0303 108.431 68.594L107.258 67.4208L106.085 66.2476C105.649 65.8113 104.96 65.7532 104.446 66.1119L101.693 68.0704C100.558 67.3917 99.3272 66.8779 98.0086 66.5676L97.4559 63.2711C97.3493 62.6506 96.8257 62.2046 96.1955 62.2046H94.5278H92.8602C92.2397 62.2046 91.6967 62.6603 91.5998 63.2711L91.0277 66.6258C89.7479 66.9554 88.5457 67.4887 87.4404 68.1286L84.7353 66.1604C84.2215 65.8017 83.5331 65.8598 83.0968 66.2961L81.9236 67.4693L80.7504 68.6425C80.3141 69.0788 80.256 69.7671 80.6147 70.281L82.5829 73.0539C81.9333 74.1689 81.4388 75.3712 81.1189 76.651L77.8224 77.2036C77.2019 77.3103 76.7559 77.8339 76.7559 78.4641V80.1317V81.7994C76.7559 82.4199 77.2116 82.9628 77.8224 83.0598L81.177 83.6318C81.5067 84.9116 82.0399 86.1139 82.6799 87.2192L80.7407 89.9436C80.382 90.4575 80.4402 91.1459 80.8765 91.5822L82.0496 92.7554L83.2228 93.9285C83.6591 94.3648 84.3475 94.423 84.8614 94.0643L87.6343 92.0961C88.7202 92.7263 89.9031 93.2304 91.1441 93.5407L91.6967 96.8663C91.8034 97.4868 92.327 97.9328 92.9572 97.9328H94.6248H96.2924C96.913 97.9328 97.4559 97.4771 97.5529 96.8663L98.1055 93.5407C99.3853 93.211 100.588 92.7166 101.703 92.0476L104.456 94.0061C104.97 94.3648 105.658 94.3067 106.095 93.8703L107.268 92.6972L108.441 91.524C108.877 91.0877 108.935 90.3993 108.577 89.8855L106.618 87.1319C107.278 86.0169 107.782 84.8147 108.111 83.5349L111.437 82.9822C112.057 82.8756 112.503 82.352 112.503 81.7218V80.0542V78.3865C112.474 77.766 112.028 77.2424 111.427 77.1358ZM104.068 81.6345H104C103.147 81.6345 95.4683 81.9157 95.4683 90.8744C95.4683 91.3689 95.0417 91.7955 94.6151 91.7276C94.1206 91.7276 93.694 91.301 93.694 90.8065C93.694 81.8478 86.0927 81.5667 85.1619 81.5667C84.6674 81.5667 84.2408 81.14 84.2408 80.6456C84.2408 80.1511 84.5996 79.7924 85.0941 79.7245C85.0941 79.7245 85.0941 79.7245 85.1619 79.7245C86.0151 79.7245 93.694 79.4433 93.694 70.4846C93.694 69.9901 94.1206 69.5635 94.6151 69.5635C95.1096 69.5635 95.5362 69.9901 95.5362 70.4846C95.5362 79.4433 103.215 79.7245 104.068 79.7245C104.563 79.7245 104.989 80.1511 104.989 80.6456C104.989 81.2079 104.563 81.6345 104.068 81.6345Z" fill="white"/>
</g>
<path d="M262.132 38.773C263.197 38.773 264.059 37.9119 264.059 36.8492C264.059 35.7866 263.196 34.9238 262.132 34.9238C261.069 34.9238 260.207 35.7849 260.207 36.8492C260.207 37.9135 261.072 38.773 262.132 38.773Z" fill="#6E809C"/>
<path d="M262.133 44.6127C263.251 44.6127 264.157 43.7077 264.157 42.5914C264.157 41.4752 263.25 40.5669 262.133 40.5669C261.016 40.5669 260.109 41.4736 260.109 42.5914C260.109 43.7093 261.016 44.6127 262.133 44.6127Z" fill="#6E809C"/>
<path d="M265.952 31.0957C265.952 32.2119 266.859 33.1186 267.976 33.1186C269.093 33.1186 270 32.2119 270 31.0957C270 29.9794 269.096 29.0728 267.976 29.0728C266.856 29.0728 265.952 29.9794 265.952 31.0957Z" fill="#6E809C"/>
<path d="M260.109 31.0957C260.109 32.2119 261.016 33.1186 262.133 33.1186C263.25 33.1186 264.157 32.2119 264.157 31.0957C264.157 29.9794 263.251 29.0728 262.133 29.0728C261.014 29.0728 260.109 29.9794 260.109 31.0957Z" fill="#6E809C"/>
<path d="M254.267 31.0957C254.267 32.2119 255.171 33.1186 256.291 33.1186C257.411 33.1186 258.315 32.2119 258.315 31.0957C258.315 29.9794 257.408 29.0728 256.291 29.0728C255.174 29.0728 254.267 29.9794 254.267 31.0957Z" fill="#6E809C"/>
<path d="M191.31 49.9275V37.4179H194.089V42.6352L200.656 37.4179H204.645L196.801 43.3095L205.608 49.9275H201.184L194.089 44.4258V49.9275H191.31Z" fill="#6E809C"/>
<path d="M223.648 49.9275V37.4179H226.531L226.54 49.9275H223.648Z" fill="#6E809C"/>
<path d="M241.852 40.7746H239.28C239.277 40.487 239.274 40.1994 239.274 39.9102C239.273 39.6589 239.177 39.5333 238.988 39.5333H231.47C231.168 39.5333 230.99 39.7981 230.99 39.9898V41.8763C230.99 42.3052 231.33 42.3052 231.527 42.3052H239.271C241.851 42.3052 241.851 43.7042 241.851 44.6434V47.8085C241.851 48.7363 241.851 49.9241 239.939 49.9241H230.979C228.989 49.9241 228.415 49.2677 228.415 47.5567V46.4226H230.989V47.1684C230.989 47.2139 230.989 47.5583 231.517 47.5583H238.999C239.179 47.5583 239.269 47.4733 239.269 47.3032V44.8611C239.269 44.7539 239.111 44.6482 239.072 44.645H230.989C230.195 44.645 228.415 44.645 228.415 42.6952V39.53C228.415 38.1538 229.169 37.4112 230.361 37.4112H239.36C240.719 37.4112 241.851 38.1229 241.851 39.5284V40.7698L241.852 40.7746Z" fill="#6E809C"/>
<path d="M189.289 37.4161V39.5382H179.329V42.3459H185.138V44.4289H179.329V47.6152H189.289L189.288 49.9257H176.499V37.4161H189.289Z" fill="#6E809C"/>
<path d="M221.492 37.4161H218.928V45.8442L208.714 37.4161H206.889V49.9257H209.41V41.5871L219.537 49.9257H221.492V37.4161Z" fill="#6E809C"/>
<path d="M160 37.4161H174.457V39.6633H168.682V49.9257H165.752V39.6633H160V37.4161Z" fill="#6E809C"/>
<path d="M252.329 37.4161H249.607L242.499 49.9257H245.451L246.947 47.1538H254.984L256.452 49.9257H259.403L252.329 37.4161ZM250.95 44.8871L248.163 44.8839L250.95 39.8843L250.992 39.8046L253.737 44.892L250.95 44.8855V44.8871Z" fill="#6E809C"/>
<path d="M188.545 67.3172V74.8522H172.815V82.9922H184.585V90.3072H172.815V105.927H163.41V67.3172H188.545ZM191.618 90.5272C191.618 87.3739 192.205 84.6056 193.378 82.2222C194.588 79.8389 196.22 78.0056 198.273 76.7222C200.326 75.4389 202.618 74.7972 205.148 74.7972C207.311 74.7972 209.2 75.2372 210.813 76.1172C212.463 76.9972 213.728 78.1522 214.608 79.5822V75.2372H224.013V105.927H214.608V101.582C213.691 103.012 212.408 104.167 210.758 105.047C209.145 105.927 207.256 106.367 205.093 106.367C202.6 106.367 200.326 105.726 198.273 104.442C196.22 103.122 194.588 101.271 193.378 98.8872C192.205 96.4672 191.618 93.6806 191.618 90.5272ZM214.608 90.5822C214.608 88.2356 213.948 86.3839 212.628 85.0272C211.345 83.6706 209.768 82.9922 207.898 82.9922C206.028 82.9922 204.433 83.6706 203.113 85.0272C201.83 86.3472 201.188 88.1806 201.188 90.5272C201.188 92.8739 201.83 94.7439 203.113 96.1372C204.433 97.4939 206.028 98.1722 207.898 98.1722C209.768 98.1722 211.345 97.4939 212.628 96.1372C213.948 94.7806 214.608 92.9289 214.608 90.5822ZM228.947 90.5822C228.947 87.3922 229.589 84.6056 230.872 82.2222C232.192 79.8389 234.007 78.0056 236.317 76.7222C238.664 75.4389 241.341 74.7972 244.347 74.7972C248.197 74.7972 251.406 75.8056 253.972 77.8222C256.576 79.8389 258.281 82.6806 259.087 86.3472H249.077C248.234 84.0006 246.602 82.8272 244.182 82.8272C242.459 82.8272 241.084 83.5056 240.057 84.8622C239.031 86.1822 238.517 88.0889 238.517 90.5822C238.517 93.0756 239.031 95.0006 240.057 96.3572C241.084 97.6772 242.459 98.3372 244.182 98.3372C246.602 98.3372 248.234 97.1639 249.077 94.8172H259.087C258.281 98.4106 256.576 101.234 253.972 103.287C251.369 105.341 248.161 106.367 244.347 106.367C241.341 106.367 238.664 105.726 236.317 104.442C234.007 103.159 232.192 101.326 230.872 98.9422C229.589 96.5589 228.947 93.7722 228.947 90.5822ZM268.848 72.0472C267.198 72.0472 265.841 71.5706 264.778 70.6172C263.751 69.6272 263.238 68.4172 263.238 66.9872C263.238 65.5206 263.751 64.3106 264.778 63.3572C265.841 62.3672 267.198 61.8722 268.848 61.8722C270.461 61.8722 271.781 62.3672 272.808 63.3572C273.871 64.3106 274.403 65.5206 274.403 66.9872C274.403 68.4172 273.871 69.6272 272.808 70.6172C271.781 71.5706 270.461 72.0472 268.848 72.0472ZM273.523 75.2372V105.927H264.118V75.2372H273.523ZM289.744 65.2272V105.927H280.339V65.2272H289.744ZM301.289 72.0472C299.639 72.0472 298.283 71.5706 297.219 70.6172C296.193 69.6272 295.679 68.4172 295.679 66.9872C295.679 65.5206 296.193 64.3106 297.219 63.3572C298.283 62.3672 299.639 61.8722 301.289 61.8722C302.903 61.8722 304.223 62.3672 305.249 63.3572C306.313 64.3106 306.844 65.5206 306.844 66.9872C306.844 68.4172 306.313 69.6272 305.249 70.6172C304.223 71.5706 302.903 72.0472 301.289 72.0472ZM305.964 75.2372V105.927H296.559V75.2372H305.964ZM329.885 97.9522V105.927H325.1C321.69 105.927 319.032 105.102 317.125 103.452C315.218 101.766 314.265 99.0339 314.265 95.2572V83.0472H310.525V75.2372H314.265V67.7572H323.67V75.2372H329.83V83.0472H323.67V95.3672C323.67 96.2839 323.89 96.9439 324.33 97.3472C324.77 97.7506 325.503 97.9522 326.53 97.9522H329.885ZM339.854 72.0472C338.204 72.0472 336.847 71.5706 335.784 70.6172C334.757 69.6272 334.244 68.4172 334.244 66.9872C334.244 65.5206 334.757 64.3106 335.784 63.3572C336.847 62.3672 338.204 61.8722 339.854 61.8722C341.467 61.8722 342.787 62.3672 343.814 63.3572C344.877 64.3106 345.409 65.5206 345.409 66.9872C345.409 68.4172 344.877 69.6272 343.814 70.6172C342.787 71.5706 341.467 72.0472 339.854 72.0472ZM344.529 75.2372V105.927H335.124V75.2372H344.529ZM380.275 90.0872C380.275 90.9672 380.22 91.8839 380.11 92.8372H358.825C358.971 94.7439 359.576 96.2106 360.64 97.2372C361.74 98.2272 363.078 98.7222 364.655 98.7222C367.001 98.7222 368.633 97.7322 369.55 95.7522H379.56C379.046 97.7689 378.111 99.5839 376.755 101.197C375.435 102.811 373.766 104.076 371.75 104.992C369.733 105.909 367.478 106.367 364.985 106.367C361.978 106.367 359.301 105.726 356.955 104.442C354.608 103.159 352.775 101.326 351.455 98.9422C350.135 96.5589 349.475 93.7722 349.475 90.5822C349.475 87.3922 350.116 84.6056 351.4 82.2222C352.72 79.8389 354.553 78.0056 356.9 76.7222C359.246 75.4389 361.941 74.7972 364.985 74.7972C367.955 74.7972 370.595 75.4206 372.905 76.6672C375.215 77.9139 377.011 79.6922 378.295 82.0022C379.615 84.3122 380.275 87.0072 380.275 90.0872ZM370.65 87.6122C370.65 85.9989 370.1 84.7156 369 83.7622C367.9 82.8089 366.525 82.3322 364.875 82.3322C363.298 82.3322 361.96 82.7906 360.86 83.7072C359.796 84.6239 359.136 85.9256 358.88 87.6122H370.65ZM397.721 106.367C395.045 106.367 392.661 105.909 390.571 104.992C388.481 104.076 386.831 102.829 385.621 101.252C384.411 99.6389 383.733 97.8422 383.586 95.8622H392.881C392.991 96.9256 393.486 97.7872 394.366 98.4472C395.246 99.1072 396.328 99.4372 397.611 99.4372C398.785 99.4372 399.683 99.2172 400.306 98.7772C400.966 98.3006 401.296 97.6956 401.296 96.9622C401.296 96.0822 400.838 95.4406 399.921 95.0372C399.005 94.5972 397.52 94.1206 395.466 93.6072C393.266 93.0939 391.433 92.5622 389.966 92.0122C388.5 91.4256 387.235 90.5272 386.171 89.3172C385.108 88.0706 384.576 86.4022 384.576 84.3122C384.576 82.5522 385.053 80.9572 386.006 79.5272C386.996 78.0606 388.426 76.9056 390.296 76.0622C392.203 75.2189 394.458 74.7972 397.061 74.7972C400.911 74.7972 403.936 75.7506 406.136 77.6572C408.373 79.5639 409.656 82.0939 409.986 85.2472H401.296C401.15 84.1839 400.673 83.3406 399.866 82.7172C399.096 82.0939 398.07 81.7822 396.786 81.7822C395.686 81.7822 394.843 82.0022 394.256 82.4422C393.67 82.8456 393.376 83.4139 393.376 84.1472C393.376 85.0272 393.835 85.6872 394.751 86.1272C395.705 86.5672 397.171 87.0072 399.151 87.4472C401.425 88.0339 403.276 88.6206 404.706 89.2072C406.136 89.7572 407.383 90.6739 408.446 91.9572C409.546 93.2039 410.115 94.8906 410.151 97.0172C410.151 98.8139 409.638 100.427 408.611 101.857C407.621 103.251 406.173 104.351 404.266 105.157C402.396 105.964 400.215 106.367 397.721 106.367Z" fill="#040486"/>
<defs>
<clipPath id="clip0_1397_1346">
<rect width="140" height="140" fill="white"/>
</clipPath>
</defs>
</svg>
