<svg width="421" height="140" viewBox="0 0 421 140" fill="none" xmlns="http://www.w3.org/2000/svg">
<g clip-path="url(#clip0_1392_3393)">
<path d="M0 35.5895C0 23.0007 0 16.7064 2.48876 11.9153C4.586 7.87793 7.87793 4.586 11.9153 2.48876C16.7064 0 23.0007 0 35.5895 0H104.411C116.999 0 123.294 0 128.085 2.48876C132.122 4.586 135.414 7.87793 137.511 11.9153C140 16.7064 140 23.0007 140 35.5895V104.411C140 116.999 140 123.294 137.511 128.085C135.414 132.122 132.122 135.414 128.085 137.511C123.294 140 116.999 140 104.411 140H35.5895C23.0007 140 16.7064 140 11.9153 137.511C7.87793 135.414 4.586 132.122 2.48876 128.085C0 123.294 0 116.999 0 104.411V35.5895Z" fill="#040486"/>
<path d="M104.492 63C104.338 69.6516 102.707 76.1821 99.7206 82.1056C96.7343 88.0291 92.4696 93.1928 87.2441 97.2125V108.5C87.2441 109.428 86.8807 110.318 86.2337 110.975C85.5868 111.631 84.7094 112 83.7945 112C82.8796 112 82.0022 111.631 81.3552 110.975C80.7083 110.318 80.3449 109.428 80.3449 108.5V35C80.3139 33.6849 80.6681 32.3901 81.3626 31.2793C82.0571 30.1684 83.0606 29.2915 84.2464 28.7595C85.6084 28.1973 87.1024 28.0498 88.5457 28.3351C89.9891 28.6204 91.3192 29.3261 92.3737 30.366C100.375 39.2733 104.711 50.9505 104.492 63ZM66.5465 28C65.6316 28 64.7541 28.3687 64.1072 29.0251C63.4603 29.6815 63.0968 30.5717 63.0968 31.5V52.5C63.088 54.6639 62.4204 56.7722 61.1855 58.5364C59.9505 60.3007 58.2084 61.6347 56.1976 62.356V31.5C56.1976 30.5717 55.8342 29.6815 55.1873 29.0251C54.5403 28.3687 53.6629 28 52.748 28C51.8331 28 50.9557 28.3687 50.3088 29.0251C49.6619 29.6815 49.2984 30.5717 49.2984 31.5V62.356C47.2876 61.6347 45.5456 60.3007 44.3106 58.5364C43.0756 56.7722 42.4081 54.6639 42.3992 52.5V31.5C42.3992 30.5717 42.0358 29.6815 41.3888 29.0251C40.7419 28.3687 39.8645 28 38.9496 28C38.0347 28 37.1573 28.3687 36.5104 29.0251C35.8634 29.6815 35.5 30.5717 35.5 31.5V52.5C35.505 56.5327 36.8802 60.4404 39.3936 63.5644C41.9071 66.6884 45.4052 68.8377 49.2984 69.65V108.5C49.2984 109.428 49.6619 110.318 50.3088 110.975C50.9557 111.631 51.8331 112 52.748 112C53.6629 112 54.5403 111.631 55.1873 110.975C55.8342 110.318 56.1976 109.428 56.1976 108.5V69.65C60.0908 68.8377 63.5889 66.6884 66.1024 63.5644C68.6159 60.4404 69.991 56.5327 69.9961 52.5V31.5C69.9961 30.5717 69.6326 29.6815 68.9857 29.0251C68.3388 28.3687 67.4613 28 66.5465 28Z" fill="white"/>
</g>
<path d="M280.685 49.9398V32.5978H273.551V29.0598H292.169V32.5978H285.035V49.9398H280.685Z" fill="#6E809C"/>
<path d="M294.596 49.9398V29.0598H310.749V32.5978H298.975V37.4988H309.734V40.9498H298.975V46.4018H310.894V49.9398H294.596Z" fill="#6E809C"/>
<path d="M332.848 45.1258C331.862 47.7358 328.875 50.3458 323.945 50.3458C317.855 50.3458 313.302 46.5178 313.302 39.4998C313.302 32.4818 317.855 28.6538 323.945 28.6538C328.875 28.6538 331.862 31.2638 332.848 33.8738L328.846 34.9468C328.266 34.0188 326.932 32.1918 323.945 32.1918C320.407 32.1918 317.681 34.8308 317.681 39.4998C317.681 44.1688 320.407 46.8078 323.945 46.8078C326.932 46.8078 328.266 44.9808 328.846 44.0528L332.848 45.1258Z" fill="#6E809C"/>
<path d="M335.745 49.9398V29.0598H351.492V32.5978H340.124V38.5718H350.477V42.1098H340.124V49.9398H335.745Z" fill="#6E809C"/>
<path d="M364.444 50.3458C358.963 50.3458 353.772 46.9818 353.772 39.4998C353.772 32.0178 358.963 28.6538 364.444 28.6538C369.925 28.6538 375.116 32.0178 375.116 39.4998C375.116 46.9818 369.925 50.3458 364.444 50.3458ZM364.444 46.8078C368.04 46.8078 370.766 44.0238 370.766 39.4998C370.766 34.9758 368.04 32.1918 364.444 32.1918C360.848 32.1918 358.151 34.9758 358.151 39.4998C358.151 44.0238 360.848 46.8078 364.444 46.8078Z" fill="#6E809C"/>
<path d="M388.233 50.3458C382.752 50.3458 377.561 46.9818 377.561 39.4998C377.561 32.0178 382.752 28.6538 388.233 28.6538C393.714 28.6538 398.905 32.0178 398.905 39.4998C398.905 46.9818 393.714 50.3458 388.233 50.3458ZM388.233 46.8078C391.829 46.8078 394.555 44.0238 394.555 39.4998C394.555 34.9758 391.829 32.1918 388.233 32.1918C384.637 32.1918 381.94 34.9758 381.94 39.4998C381.94 44.0238 384.637 46.8078 388.233 46.8078Z" fill="#6E809C"/>
<path d="M402.1 49.9398V29.0598H410.597C416.861 29.0598 420.631 33.0328 420.631 39.4998C420.631 45.9668 416.861 49.9398 410.597 49.9398H402.1ZM406.479 46.4018H410.597C414.135 46.4018 416.252 43.7628 416.252 39.4998C416.252 35.2368 414.135 32.5978 410.597 32.5978H406.479V46.4018Z" fill="#6E809C"/>
<path d="M262.132 38.6402C263.197 38.6402 264.059 37.779 264.059 36.7164C264.059 35.6538 263.196 34.791 262.132 34.791C261.069 34.791 260.207 35.6521 260.207 36.7164C260.207 37.7807 261.072 38.6402 262.132 38.6402Z" fill="#6E809C"/>
<path d="M262.133 44.4799C263.251 44.4799 264.157 43.5749 264.157 42.4586C264.157 41.3424 263.25 40.4341 262.133 40.4341C261.016 40.4341 260.109 41.3407 260.109 42.4586C260.109 43.5765 261.016 44.4799 262.133 44.4799Z" fill="#6E809C"/>
<path d="M265.952 30.9629C265.952 32.0791 266.859 32.9858 267.976 32.9858C269.093 32.9858 270 32.0791 270 30.9629C270 29.8466 269.096 28.9399 267.976 28.9399C266.856 28.9399 265.952 29.8466 265.952 30.9629Z" fill="#6E809C"/>
<path d="M260.109 30.9629C260.109 32.0791 261.016 32.9858 262.133 32.9858C263.25 32.9858 264.157 32.0791 264.157 30.9629C264.157 29.8466 263.251 28.9399 262.133 28.9399C261.014 28.9399 260.109 29.8466 260.109 30.9629Z" fill="#6E809C"/>
<path d="M254.267 30.9629C254.267 32.0791 255.171 32.9858 256.291 32.9858C257.411 32.9858 258.315 32.0791 258.315 30.9629C258.315 29.8466 257.408 28.9399 256.291 28.9399C255.174 28.9399 254.267 29.8466 254.267 30.9629Z" fill="#6E809C"/>
<path d="M191.31 49.7947V37.2851H194.089V42.5024L200.656 37.2851H204.645L196.801 43.1767L205.608 49.7947H201.184L194.089 44.293V49.7947H191.31Z" fill="#6E809C"/>
<path d="M223.648 49.7947V37.2851H226.531L226.54 49.7947H223.648Z" fill="#6E809C"/>
<path d="M241.852 40.6418H239.28C239.277 40.3542 239.274 40.0666 239.274 39.7774C239.273 39.5261 239.177 39.4005 238.988 39.4005H231.47C231.168 39.4005 230.99 39.6653 230.99 39.857V41.7435C230.99 42.1724 231.33 42.1724 231.527 42.1724H239.271C241.851 42.1724 241.851 43.5714 241.851 44.5106V47.6757C241.851 48.6035 241.851 49.7913 239.939 49.7913H230.979C228.989 49.7913 228.415 49.1348 228.415 47.4239V46.2898H230.989V47.0356C230.989 47.081 230.989 47.4255 231.517 47.4255H238.999C239.179 47.4255 239.269 47.3405 239.269 47.1704V44.7283C239.269 44.621 239.111 44.5154 239.072 44.5122H230.989C230.195 44.5122 228.415 44.5122 228.415 42.5624V39.3972C228.415 38.021 229.169 37.2784 230.361 37.2784H239.36C240.719 37.2784 241.851 37.9901 241.851 39.3956V40.637L241.852 40.6418Z" fill="#6E809C"/>
<path d="M189.289 37.2833V39.4054H179.329V42.2131H185.138V44.2961H179.329V47.4824H189.289L189.288 49.7929H176.499V37.2833H189.289Z" fill="#6E809C"/>
<path d="M221.492 37.2833H218.928V45.7113L208.714 37.2833H206.889V49.7929H209.41V41.4543L219.537 49.7929H221.492V37.2833Z" fill="#6E809C"/>
<path d="M160 37.2833H174.457V39.5305H168.682V49.7929H165.752V39.5305H160V37.2833Z" fill="#6E809C"/>
<path d="M252.329 37.2833H249.607L242.499 49.7929H245.451L246.947 47.021H254.984L256.452 49.7929H259.403L252.329 37.2833ZM250.95 44.7543L248.163 44.7511L250.95 39.7515L250.992 39.6718L253.737 44.7592L250.95 44.7527V44.7543Z" fill="#6E809C"/>
<path d="M191.185 67.7357V75.2707H180.955V106.346H171.55V75.2707H161.32V67.7357H191.185ZM224.835 90.5057C224.835 91.3857 224.78 92.3024 224.67 93.2557H203.385C203.532 95.1624 204.137 96.629 205.2 97.6557C206.3 98.6457 207.638 99.1407 209.215 99.1407C211.562 99.1407 213.193 98.1507 214.11 96.1707H224.12C223.607 98.1874 222.672 100.002 221.315 101.616C219.995 103.229 218.327 104.494 216.31 105.411C214.293 106.327 212.038 106.786 209.545 106.786C206.538 106.786 203.862 106.144 201.515 104.861C199.168 103.577 197.335 101.744 196.015 99.3607C194.695 96.9774 194.035 94.1907 194.035 91.0007C194.035 87.8107 194.677 85.024 195.96 82.6407C197.28 80.2574 199.113 78.424 201.46 77.1407C203.807 75.8574 206.502 75.2157 209.545 75.2157C212.515 75.2157 215.155 75.839 217.465 77.0857C219.775 78.3324 221.572 80.1107 222.855 82.4207C224.175 84.7307 224.835 87.4257 224.835 90.5057ZM215.21 88.0307C215.21 86.4174 214.66 85.134 213.56 84.1807C212.46 83.2274 211.085 82.7507 209.435 82.7507C207.858 82.7507 206.52 83.209 205.42 84.1257C204.357 85.0424 203.697 86.344 203.44 88.0307H215.21ZM227.927 91.0007C227.927 87.8107 228.568 85.024 229.852 82.6407C231.172 80.2574 232.987 78.424 235.297 77.1407C237.643 75.8574 240.32 75.2157 243.327 75.2157C247.177 75.2157 250.385 76.224 252.952 78.2407C255.555 80.2574 257.26 83.099 258.067 86.7657H248.057C247.213 84.419 245.582 83.2457 243.162 83.2457C241.438 83.2457 240.063 83.924 239.037 85.2807C238.01 86.6007 237.497 88.5074 237.497 91.0007C237.497 93.494 238.01 95.419 239.037 96.7757C240.063 98.0957 241.438 98.7557 243.162 98.7557C245.582 98.7557 247.213 97.5824 248.057 95.2357H258.067C257.26 98.829 255.555 101.652 252.952 103.706C250.348 105.759 247.14 106.786 243.327 106.786C240.32 106.786 237.643 106.144 235.297 104.861C232.987 103.577 231.172 101.744 229.852 99.3607C228.568 96.9774 227.927 94.1907 227.927 91.0007ZM288.233 67.7357V75.2707H272.503V83.4107H284.273V90.7257H272.503V106.346H263.098V67.7357H288.233ZM307.146 106.786C304.139 106.786 301.426 106.144 299.006 104.861C296.622 103.577 294.734 101.744 293.341 99.3607C291.984 96.9774 291.306 94.1907 291.306 91.0007C291.306 87.8474 292.002 85.079 293.396 82.6957C294.789 80.2757 296.696 78.424 299.116 77.1407C301.536 75.8574 304.249 75.2157 307.256 75.2157C310.262 75.2157 312.976 75.8574 315.396 77.1407C317.816 78.424 319.722 80.2757 321.116 82.6957C322.509 85.079 323.206 87.8474 323.206 91.0007C323.206 94.154 322.491 96.9407 321.061 99.3607C319.667 101.744 317.742 103.577 315.286 104.861C312.866 106.144 310.152 106.786 307.146 106.786ZM307.146 98.6457C308.942 98.6457 310.464 97.9857 311.711 96.6657C312.994 95.3457 313.636 93.4574 313.636 91.0007C313.636 88.544 313.012 86.6557 311.766 85.3357C310.556 84.0157 309.052 83.3557 307.256 83.3557C305.422 83.3557 303.901 84.0157 302.691 85.3357C301.481 86.619 300.876 88.5074 300.876 91.0007C300.876 93.4574 301.462 95.3457 302.636 96.6657C303.846 97.9857 305.349 98.6457 307.146 98.6457ZM342.165 106.786C339.158 106.786 336.445 106.144 334.025 104.861C331.642 103.577 329.753 101.744 328.36 99.3607C327.003 96.9774 326.325 94.1907 326.325 91.0007C326.325 87.8474 327.022 85.079 328.415 82.6957C329.808 80.2757 331.715 78.424 334.135 77.1407C336.555 75.8574 339.268 75.2157 342.275 75.2157C345.282 75.2157 347.995 75.8574 350.415 77.1407C352.835 78.424 354.742 80.2757 356.135 82.6957C357.528 85.079 358.225 87.8474 358.225 91.0007C358.225 94.154 357.51 96.9407 356.08 99.3607C354.687 101.744 352.762 103.577 350.305 104.861C347.885 106.144 345.172 106.786 342.165 106.786ZM342.165 98.6457C343.962 98.6457 345.483 97.9857 346.73 96.6657C348.013 95.3457 348.655 93.4574 348.655 91.0007C348.655 88.544 348.032 86.6557 346.785 85.3357C345.575 84.0157 344.072 83.3557 342.275 83.3557C340.442 83.3557 338.92 84.0157 337.71 85.3357C336.5 86.619 335.895 88.5074 335.895 91.0007C335.895 93.4574 336.482 95.3457 337.655 96.6657C338.865 97.9857 340.368 98.6457 342.165 98.6457ZM361.345 90.9457C361.345 87.7924 361.931 85.024 363.105 82.6407C364.315 80.2574 365.946 78.424 368 77.1407C370.053 75.8574 372.345 75.2157 374.875 75.2157C376.891 75.2157 378.725 75.6374 380.375 76.4807C382.061 77.324 383.381 78.4607 384.335 79.8907V65.6457H393.74V106.346H384.335V101.946C383.455 103.412 382.19 104.586 380.54 105.466C378.926 106.346 377.038 106.786 374.875 106.786C372.345 106.786 370.053 106.144 368 104.861C365.946 103.541 364.315 101.689 363.105 99.3057C361.931 96.8857 361.345 94.099 361.345 90.9457ZM384.335 91.0007C384.335 88.654 383.675 86.8024 382.355 85.4457C381.071 84.089 379.495 83.4107 377.625 83.4107C375.755 83.4107 374.16 84.089 372.84 85.4457C371.556 86.7657 370.915 88.599 370.915 90.9457C370.915 93.2924 371.556 95.1624 372.84 96.5557C374.16 97.9124 375.755 98.5907 377.625 98.5907C379.495 98.5907 381.071 97.9124 382.355 96.5557C383.675 95.199 384.335 93.3474 384.335 91.0007Z" fill="#040486"/>
<defs>
<clipPath id="clip0_1392_3393">
<rect width="140" height="140" fill="white"/>
</clipPath>
</defs>
</svg>
