<svg width="1243" height="159" viewBox="0 0 1243 159" fill="none" xmlns="http://www.w3.org/2000/svg">
<path d="M377 157.39V0H418.86V57.1778L486.1 0H545.032L459.731 74.135L557.163 157.39H494.766L418.86 92.1162V157.39H377Z" fill="white"/>
<path d="M775 157.893V1H817.045L817.19 157.893H775Z" fill="white"/>
<path d="M360.153 1V36.5976H238.442L238.442 60.3293H307.865L307.853 92.6308H238.442L238.442 122.955H360.153L360.146 158.39H199V1H360.153Z" fill="white"/>
<path d="M758.023 0H716.44V96.0805L607.231 0H574V157.39H616.003V61.1421L724.114 157.39H758.023V0Z" fill="white"/>
<path d="M0 1H182.182V36.5976H111.407V158.39L69.2175 158.469V36.6768L0 36.5976V1Z" fill="white"/>
<path d="M1151.84 1H1110.31L1020 158.39L1064.93 158.395L1083.78 127.574L1179.53 127.569L1198.02 158.39H1242.81L1151.84 1ZM1099.11 91.9767L1134.22 32.0538L1129.22 31.0547L1163.8 92.0887L1099.11 91.9767Z" fill="white"/>
<path d="M971.921 0C989.045 0.00012555 1003.31 7.69867 1003.31 25.3828V44.6807H961.355C961.31 41.0645 961.28 44.5014 961.276 40.8701C961.273 37.2381 958.806 36.1299 956.602 36.1299H882.193C878.383 36.1299 876.141 39.4639 876.141 41.8828V57.2969C876.141 62.6975 880.417 62.6973 882.909 62.6973H970.784C1003.3 62.6973 1003.3 83.3123 1003.3 95.1309V130.786C1003.3 142.457 1003.3 157.413 979.212 157.413H866.313C841.235 157.413 834 143.095 834 121.57V113.239H876.243V116.688C876.243 117.26 876.244 121.601 882.909 121.601H956.613C959.879 121.601 960.684 119.801 960.544 116.688L960.545 98.3232C960.545 95.662 959.284 94.8575 956.929 94.8574H866.435C856.439 94.8574 834.001 95.0763 834.001 67.4395V25.4014C834.001 8.08031 843.5 0.000150098 858.525 0H971.921Z" fill="white"/>
</svg>
