<svg width="199" height="196" viewBox="0 0 199 196" fill="none" xmlns="http://www.w3.org/2000/svg">
<path d="M99.1172 122.049C112.529 122.049 123.404 111.209 123.404 97.8374C123.404 84.4617 112.529 73.6221 99.1172 73.6221C85.743 73.6221 74.8535 84.4617 74.8535 97.8374C74.8535 111.209 85.743 122.049 99.1172 122.049Z" fill="white"/>
<path d="M97.6352 195.899C111.721 195.899 123.149 184.503 123.149 170.466C123.149 156.395 111.718 145 97.6352 145C83.5641 145 72.1367 156.399 72.1367 170.466C72.1367 184.503 83.5641 195.899 97.6352 195.899Z" fill="white"/>
<path d="M147.25 25.4474C147.25 39.4959 158.674 50.9062 172.748 50.9062C186.857 50.9062 198.247 39.4921 198.247 25.4474C198.247 11.4103 186.854 0 172.748 0C158.674 0 147.25 11.4141 147.25 25.4474Z" fill="white"/>
<path d="M73.6191 25.4474C73.6191 39.4959 85.0427 50.9062 99.1176 50.9062C113.227 50.9062 124.631 39.4921 124.631 25.4474C124.631 11.4103 113.223 0 99.1176 0C85.0389 0 73.6191 11.4141 73.6191 25.4474Z" fill="white"/>
<path d="M0 25.4474C0 39.4959 11.3856 50.9062 25.4984 50.9062C39.5771 50.9062 50.9968 39.4921 50.9968 25.4474C50.9968 11.4103 39.5733 0 25.4984 0C11.3856 0 0 11.4141 0 25.4474Z" fill="white"/>
</svg>
