<svg width="322" height="140" viewBox="0 0 322 140" fill="none" xmlns="http://www.w3.org/2000/svg">
<g clip-path="url(#clip0_1470_3154)">
<path d="M0 35.5895C0 23.0007 0 16.7064 2.48876 11.9153C4.586 7.87793 7.87793 4.586 11.9153 2.48876C16.7064 0 23.0007 0 35.5895 0H104.411C116.999 0 123.294 0 128.085 2.48876C132.122 4.586 135.414 7.87793 137.511 11.9153C140 16.7064 140 23.0007 140 35.5895V104.411C140 116.999 140 123.294 137.511 128.085C135.414 132.122 132.122 135.414 128.085 137.511C123.294 140 116.999 140 104.411 140H35.5895C23.0007 140 16.7064 140 11.9153 137.511C7.87793 135.414 4.586 132.122 2.48876 128.085C0 123.294 0 116.999 0 104.411V35.5895Z" fill="#040486"/>
<path d="M110.77 90.4493C110.77 98.1061 110.77 105.763 110.77 113.42C110.77 115.73 109.895 116.623 107.636 116.623C102.449 116.623 97.2632 116.623 92.0769 116.623C89.9539 116.623 89.044 115.69 89.044 113.532C89.044 98.1469 89.044 82.7619 89.044 67.382C89.044 65.2956 89.9792 64.3417 92.0213 64.3417C97.2784 64.3366 102.535 64.3366 107.792 64.3417C109.85 64.3417 110.775 65.2854 110.775 67.382C110.775 75.0745 110.775 82.767 110.775 90.4595L110.77 90.4493Z" fill="white"/>
<path d="M53.221 75.7329C70.2609 60.4499 87.2503 45.2129 104.376 29.8534C103.967 29.8075 103.719 29.7615 103.466 29.7564C101.237 29.7513 99.0079 29.7615 96.7787 29.7513C94.7265 29.736 93.2353 28.3281 93.2151 26.4152C93.1948 24.4513 94.6911 23.0128 96.804 23.0077C102.273 22.9974 107.738 22.9974 113.207 23.0077C115.224 23.0077 116.609 24.4105 116.614 26.4407C116.619 31.9193 116.619 37.403 116.614 42.8817C116.614 45.0955 115.204 46.6361 113.232 46.6106C111.306 46.5902 109.937 45.0649 109.931 42.9021C109.921 39.9893 109.931 37.0766 109.931 33.9241C109.517 34.2811 109.239 34.5107 108.971 34.7505C91.2487 50.6405 73.5264 66.5356 55.799 82.4256C53.7872 84.2314 52.1544 84.1651 50.2538 82.2522C47.7972 79.773 45.3405 77.2888 42.8232 74.7484C40.4272 76.6766 38.0969 78.559 35.7666 80.4362C33.3453 82.3848 30.9493 84.3691 28.4977 86.277C26.4151 87.894 23.6198 86.9146 23.084 84.4099C22.7605 82.9051 23.3974 81.7625 24.5549 80.8341C28.7757 77.4418 32.9864 74.0393 37.2022 70.6369C38.3699 69.6932 39.5325 68.7444 40.7103 67.8109C42.4491 66.4336 44.0869 66.5101 45.6488 68.071C48.1662 70.591 50.6633 73.1364 53.221 75.7176V75.7329Z" fill="white"/>
<path d="M80.6787 98.9021C80.6787 103.784 80.6787 108.666 80.6787 113.547C80.6787 115.705 79.7688 116.618 77.6255 116.618C72.4039 116.618 67.1822 116.618 61.9605 116.618C59.8931 116.618 58.9478 115.68 58.9478 113.614C58.9478 103.814 58.9478 94.0203 58.9478 84.221C58.9478 82.1449 59.883 81.2063 61.9504 81.2012C67.1721 81.2012 72.3938 81.2012 77.6154 81.2012C79.7638 81.2012 80.6787 82.1143 80.6837 84.2618C80.6837 89.1436 80.6837 94.0254 80.6837 98.9072L80.6787 98.9021Z" fill="white"/>
<path d="M28.8559 105.66C28.8559 102.957 28.8458 100.253 28.8559 97.5496C28.866 95.6877 29.8466 94.6981 31.7018 94.6981C37.0599 94.6879 42.4181 94.6879 47.7762 94.6981C49.5707 94.6981 50.5716 95.6928 50.5766 97.4884C50.5918 102.931 50.5918 108.374 50.5766 113.817C50.5766 115.618 49.5757 116.613 47.7813 116.618C42.4231 116.628 37.065 116.628 31.7068 116.618C29.8466 116.618 28.8609 115.628 28.8508 113.771C28.8357 111.068 28.8508 108.364 28.8508 105.66H28.8559Z" fill="white"/>
</g>
<path d="M262.132 38.7725C263.197 38.7725 264.059 37.9114 264.059 36.8487C264.059 35.7861 263.196 34.9233 262.132 34.9233C261.069 34.9233 260.207 35.7845 260.207 36.8487C260.207 37.913 261.072 38.7725 262.132 38.7725Z" fill="#6E809C"/>
<path d="M262.133 44.6122C263.251 44.6122 264.157 43.7072 264.157 42.591C264.157 41.4747 263.25 40.5664 262.133 40.5664C261.016 40.5664 260.109 41.4731 260.109 42.591C260.109 43.7088 261.016 44.6122 262.133 44.6122Z" fill="#6E809C"/>
<path d="M265.952 31.0952C265.952 32.2114 266.859 33.1181 267.976 33.1181C269.093 33.1181 270 32.2114 270 31.0952C270 29.9789 269.096 29.0723 267.976 29.0723C266.856 29.0723 265.952 29.9789 265.952 31.0952Z" fill="#6E809C"/>
<path d="M260.109 31.0952C260.109 32.2114 261.016 33.1181 262.133 33.1181C263.25 33.1181 264.157 32.2114 264.157 31.0952C264.157 29.9789 263.251 29.0723 262.133 29.0723C261.014 29.0723 260.109 29.9789 260.109 31.0952Z" fill="#6E809C"/>
<path d="M254.267 31.0952C254.267 32.2114 255.171 33.1181 256.291 33.1181C257.411 33.1181 258.315 32.2114 258.315 31.0952C258.315 29.9789 257.408 29.0723 256.291 29.0723C255.174 29.0723 254.267 29.9789 254.267 31.0952Z" fill="#6E809C"/>
<path d="M191.31 49.927V37.4174H194.089V42.6347L200.656 37.4174H204.645L196.801 43.309L205.608 49.927H201.184L194.089 44.4253V49.927H191.31Z" fill="#6E809C"/>
<path d="M223.648 49.927V37.4174H226.531L226.54 49.927H223.648Z" fill="#6E809C"/>
<path d="M241.852 40.7742H239.28C239.277 40.4866 239.274 40.199 239.274 39.9097C239.273 39.6584 239.177 39.5328 238.988 39.5328H231.47C231.168 39.5328 230.99 39.7976 230.99 39.9894V41.8758C230.99 42.3047 231.33 42.3047 231.527 42.3047H239.271C241.851 42.3047 241.851 43.7037 241.851 44.6429V47.8081C241.851 48.7358 241.851 49.9236 239.939 49.9236H230.979C228.989 49.9236 228.415 49.2672 228.415 47.5562V46.4221H230.989V47.1679C230.989 47.2134 230.989 47.5578 231.517 47.5578H238.999C239.179 47.5578 239.269 47.4728 239.269 47.3027V44.8606C239.269 44.7534 239.111 44.6478 239.072 44.6445H230.989C230.195 44.6445 228.415 44.6445 228.415 42.6947V39.5295C228.415 38.1533 229.169 37.4107 230.361 37.4107H239.36C240.719 37.4107 241.851 38.1224 241.851 39.5279V40.7693L241.852 40.7742Z" fill="#6E809C"/>
<path d="M189.289 37.4157V39.5377H179.329V42.3454H185.138V44.4284H179.329V47.6147H189.289L189.288 49.9253H176.499V37.4157H189.289Z" fill="#6E809C"/>
<path d="M221.492 37.4157H218.928V45.8437L208.714 37.4157H206.889V49.9253H209.41V41.5866L219.537 49.9253H221.492V37.4157Z" fill="#6E809C"/>
<path d="M160 37.4157H174.457V39.6628H168.682V49.9253H165.752V39.6628H160V37.4157Z" fill="#6E809C"/>
<path d="M252.329 37.4157H249.607L242.499 49.9253H245.451L246.947 47.1533H254.984L256.452 49.9253H259.403L252.329 37.4157ZM250.95 44.8866L248.163 44.8834L250.95 39.8838L250.992 39.8042L253.737 44.8915L250.95 44.885V44.8866Z" fill="#6E809C"/>
<path d="M183.1 105.927L175.07 91.3518H172.815V105.927H163.41V67.3168H179.195C182.238 67.3168 184.823 67.8484 186.95 68.9118C189.113 69.9751 190.727 71.4418 191.79 73.3118C192.853 75.1451 193.385 77.1984 193.385 79.4718C193.385 82.0384 192.652 84.3301 191.185 86.3468C189.755 88.3634 187.628 89.7934 184.805 90.6368L193.715 105.927H183.1ZM172.815 84.6968H178.645C180.368 84.6968 181.652 84.2751 182.495 83.4318C183.375 82.5884 183.815 81.3968 183.815 79.8568C183.815 78.3901 183.375 77.2351 182.495 76.3918C181.652 75.5484 180.368 75.1268 178.645 75.1268H172.815V84.6968ZM228.219 90.0868C228.219 90.9668 228.164 91.8834 228.054 92.8368H206.769C206.916 94.7434 207.521 96.2101 208.584 97.2368C209.684 98.2268 211.022 98.7218 212.599 98.7218C214.946 98.7218 216.577 97.7318 217.494 95.7518H227.504C226.991 97.7684 226.056 99.5834 224.699 101.197C223.379 102.81 221.711 104.075 219.694 104.992C217.677 105.908 215.422 106.367 212.929 106.367C209.922 106.367 207.246 105.725 204.899 104.442C202.552 103.158 200.719 101.325 199.399 98.9418C198.079 96.5584 197.419 93.7718 197.419 90.5818C197.419 87.3918 198.061 84.6051 199.344 82.2218C200.664 79.8384 202.497 78.0051 204.844 76.7218C207.191 75.4384 209.886 74.7968 212.929 74.7968C215.899 74.7968 218.539 75.4201 220.849 76.6668C223.159 77.9134 224.956 79.6918 226.239 82.0018C227.559 84.3118 228.219 87.0068 228.219 90.0868ZM218.594 87.6118C218.594 85.9984 218.044 84.7151 216.944 83.7618C215.844 82.8084 214.469 82.3318 212.819 82.3318C211.242 82.3318 209.904 82.7901 208.804 83.7068C207.741 84.6234 207.081 85.9251 206.824 87.6118H218.594ZM250.286 97.9518V105.927H245.501C242.091 105.927 239.432 105.102 237.526 103.452C235.619 101.765 234.666 99.0334 234.666 95.2568V83.0468H230.926V75.2368H234.666V67.7568H244.071V75.2368H250.231V83.0468H244.071V95.3668C244.071 96.2834 244.291 96.9434 244.731 97.3468C245.171 97.7501 245.904 97.9518 246.931 97.9518H250.286ZM253.654 90.5268C253.654 87.3734 254.241 84.6051 255.414 82.2218C256.624 79.8384 258.256 78.0051 260.309 76.7218C262.363 75.4384 264.654 74.7968 267.184 74.7968C269.348 74.7968 271.236 75.2368 272.849 76.1168C274.499 76.9968 275.764 78.1518 276.644 79.5818V75.2368H286.049V105.927H276.644V101.582C275.728 103.012 274.444 104.167 272.794 105.047C271.181 105.927 269.293 106.367 267.129 106.367C264.636 106.367 262.363 105.725 260.309 104.442C258.256 103.122 256.624 101.27 255.414 98.8868C254.241 96.4668 253.654 93.6801 253.654 90.5268ZM276.644 90.5818C276.644 88.2351 275.984 86.3834 274.664 85.0268C273.381 83.6701 271.804 82.9918 269.934 82.9918C268.064 82.9918 266.469 83.6701 265.149 85.0268C263.866 86.3468 263.224 88.1801 263.224 90.5268C263.224 92.8734 263.866 94.7434 265.149 96.1368C266.469 97.4934 268.064 98.1718 269.934 98.1718C271.804 98.1718 273.381 97.4934 274.664 96.1368C275.984 94.7801 276.644 92.9284 276.644 90.5818ZM297.583 72.0468C295.933 72.0468 294.577 71.5701 293.513 70.6168C292.487 69.6268 291.973 68.4168 291.973 66.9868C291.973 65.5201 292.487 64.3101 293.513 63.3568C294.577 62.3668 295.933 61.8718 297.583 61.8718C299.197 61.8718 300.517 62.3668 301.543 63.3568C302.607 64.3101 303.138 65.5201 303.138 66.9868C303.138 68.4168 302.607 69.6268 301.543 70.6168C300.517 71.5701 299.197 72.0468 297.583 72.0468ZM302.258 75.2368V105.927H292.853V75.2368H302.258ZM318.479 65.2268V105.927H309.074V65.2268H318.479Z" fill="#040486"/>
<defs>
<clipPath id="clip0_1470_3154">
<rect width="140" height="140" fill="white"/>
</clipPath>
</defs>
</svg>
