<svg width="955" height="460" viewBox="0 0 955 460" fill="none" xmlns="http://www.w3.org/2000/svg">
<path d="M763.367 58.8447C769.833 58.8447 775.076 53.6184 775.076 47.1712C775.076 40.7221 769.833 35.4958 763.367 35.4958C756.918 35.4958 751.668 40.7221 751.668 47.1712C751.668 53.6184 756.918 58.8447 763.367 58.8447Z" fill="white"/>
<path d="M763.368 94.2699C770.159 94.2699 775.669 88.7757 775.669 82.0078C775.669 75.2234 770.158 69.7292 763.368 69.7292C756.583 69.7292 751.074 75.2252 751.074 82.0078C751.074 88.7757 756.583 94.2699 763.368 94.2699Z" fill="white"/>
<path d="M786.576 12.2694C786.576 19.0428 792.084 24.5443 798.87 24.5443C805.672 24.5443 811.164 19.041 811.164 12.2694C811.164 5.50146 805.67 0 798.87 0C792.084 0 786.576 5.50328 786.576 12.2694Z" fill="white"/>
<path d="M751.074 12.2694C751.074 19.0428 756.582 24.5443 763.368 24.5443C770.17 24.5443 775.669 19.041 775.669 12.2694C775.669 5.50146 770.169 0 763.368 0C756.58 0 751.074 5.50328 751.074 12.2694Z" fill="white"/>
<path d="M715.579 12.2696C715.579 19.0431 721.069 24.5445 727.873 24.5445C734.661 24.5445 740.167 19.0412 740.167 12.2696C740.167 5.5017 734.659 0.000244141 727.873 0.000244141C721.069 0.000244141 715.579 5.50353 715.579 12.2696Z" fill="white"/>
<path d="M326.483 126.104V50.2185H346.666V77.7866L379.086 50.2185H407.499L366.372 85.9625L413.349 126.104H383.264L346.666 94.6321V126.104H326.483Z" fill="white"/>
<path d="M521.748 126.112V50.4661H542.02L542.09 126.112H521.748Z" fill="white"/>
<path d="M317.31 50.4661L317.31 67.6293H258.627V79.0715H292.1L292.094 94.6456H258.627V109.266H317.31L317.307 126.351H239.611V50.4661H317.31Z" fill="white"/>
<path d="M508.688 50.2268H488.639V96.5518L435.984 50.2268H419.962V126.112H440.214V79.7063L492.339 126.112H508.688V50.2268Z" fill="white"/>
<path d="M142.853 50.4661H230.692V67.6293H196.568V126.351L176.226 126.389V67.6675L142.853 67.6293V50.4661Z" fill="white"/>
<path d="M702.881 50.4661H682.857L639.313 126.351L660.976 126.354L670.065 111.494L716.23 111.491L725.147 126.351H746.742L702.881 50.4661ZM677.454 94.3303L694.383 65.4386L691.972 64.9568L708.647 94.3843L677.454 94.3303Z" fill="white"/>
<path d="M622.478 50.2185C630.734 50.2186 637.611 53.9304 637.611 62.4568V71.7615H617.384C617.362 70.0176 617.348 71.6748 617.346 69.9236C617.344 68.1725 616.154 67.6384 615.091 67.6384H579.216C577.379 67.6384 576.298 69.2456 576.298 70.4119V77.8435C576.298 80.4473 578.359 80.448 579.561 80.448H621.93C637.609 80.4481 637.609 90.3874 637.609 96.0857V113.277C637.609 118.904 637.609 126.115 625.993 126.115H571.559C559.468 126.115 555.98 119.211 555.979 108.834V104.816H576.347V106.479C576.347 106.756 576.348 108.847 579.561 108.847H615.097C616.671 108.847 617.06 107.98 616.992 106.479V97.6248C616.992 96.3416 616.385 95.9539 615.249 95.9539H571.617C566.798 95.9539 555.979 96.0589 555.979 82.7341V62.4656C555.98 54.1143 560.56 50.2185 567.805 50.2185H622.478Z" fill="white"/>
<path d="M877.601 222.61V173.661H915.851V181.912H886.551V214.359H916.131V222.61H877.601ZM882.216 201.632V193.52H912.285V201.632H882.216Z" fill="white"/>
<path d="M822.501 223.31C818.632 223.31 815.042 222.727 811.732 221.561C808.422 220.349 805.532 218.624 803.061 216.387C800.637 214.102 798.725 211.422 797.327 208.345C795.928 205.222 795.229 201.795 795.229 198.066C795.229 194.476 795.952 191.166 797.397 188.136C798.842 185.059 800.8 182.402 803.271 180.164C805.788 177.88 808.702 176.132 812.012 174.92C815.322 173.661 818.865 173.031 822.641 173.031C825.531 173.031 828.282 173.404 830.892 174.15C833.55 174.896 835.974 175.875 838.165 177.087C840.356 178.299 842.174 179.628 843.619 181.073L838.165 188.206C836.72 186.901 835.181 185.782 833.55 184.849C831.965 183.87 830.216 183.124 828.305 182.612C826.44 182.052 824.412 181.772 822.221 181.772C819.89 181.772 817.676 182.145 815.578 182.891C813.48 183.637 811.592 184.733 809.914 186.178C808.282 187.623 806.977 189.348 805.998 191.353C805.019 193.357 804.529 195.618 804.529 198.136C804.529 200.793 805.019 203.147 805.998 205.198C807.024 207.203 808.399 208.928 810.124 210.373C811.895 211.772 813.9 212.844 816.138 213.59C818.422 214.336 820.823 214.708 823.34 214.708C825.671 214.708 827.769 214.405 829.634 213.799C831.545 213.147 833.247 212.354 834.738 211.422C836.277 210.49 837.652 209.511 838.864 208.485L843.27 215.757C842.011 216.923 840.309 218.088 838.165 219.254C836.02 220.419 833.596 221.398 830.892 222.191C828.188 222.937 825.391 223.31 822.501 223.31Z" fill="white"/>
<path d="M730.234 222.61V214.289H741.353V181.982H730.234V173.661H761.632V181.982H750.444V214.289H761.632V222.61H730.234Z" fill="white"/>
<path d="M667.495 222.61L646.027 173.661H655.887L667.705 201.352C668.077 202.284 668.52 203.357 669.033 204.569C669.546 205.734 670.082 206.97 670.641 208.275C671.247 209.58 671.784 210.886 672.25 212.191C672.763 213.496 673.205 214.732 673.578 215.897H671.341C671.854 214.452 672.413 212.913 673.019 211.282C673.672 209.604 674.348 207.925 675.047 206.247C675.746 204.569 676.399 202.96 677.005 201.422L688.054 173.661H698.053L676.865 222.61H667.495Z" fill="white"/>
<path d="M573.851 222.61V173.661H599.794C602.918 173.661 605.715 174.337 608.186 175.689C610.656 176.994 612.614 178.812 614.06 181.143C615.551 183.474 616.297 186.108 616.297 189.045C616.297 191.982 615.528 194.662 613.99 197.086C612.451 199.464 610.377 201.352 607.766 202.751C605.202 204.149 602.335 204.848 599.165 204.848H582.732V222.61H573.851ZM607.836 222.61L592.732 200.513L602.312 198.765L618.815 222.68L607.836 222.61ZM582.732 196.947H598.606C600.144 196.947 601.543 196.62 602.801 195.968C604.06 195.268 605.039 194.336 605.738 193.171C606.484 192.005 606.857 190.7 606.857 189.255C606.857 187.809 606.461 186.551 605.668 185.478C604.922 184.36 603.873 183.474 602.522 182.821C601.17 182.169 599.654 181.842 597.976 181.842H582.732V196.947Z" fill="white"/>
<path d="M498.801 222.61V173.661H537.052V181.912H507.752V214.359H537.332V222.61H498.801ZM503.417 201.632V193.52H533.486V201.632H503.417Z" fill="white"/>
<path d="M442.64 223.309C439.236 223.309 436.113 222.96 433.269 222.26C430.472 221.561 427.931 220.535 425.647 219.183C423.363 217.785 421.265 216.083 419.354 214.079L424.668 206.876C427.605 209.953 430.565 212.144 433.549 213.449C436.532 214.755 439.726 215.407 443.129 215.407C445.087 215.407 446.928 215.174 448.653 214.708C450.378 214.195 451.8 213.473 452.919 212.54C454.084 211.561 454.667 210.326 454.667 208.834C454.667 207.855 454.387 207.039 453.828 206.387C453.269 205.687 452.499 205.105 451.52 204.638C450.588 204.172 449.516 203.799 448.304 203.52C447.092 203.193 445.833 202.937 444.528 202.75C443.269 202.517 442.033 202.308 440.821 202.121C437.884 201.701 435.227 201.119 432.85 200.373C430.519 199.58 428.537 198.601 426.906 197.436C425.274 196.224 424.015 194.802 423.13 193.17C422.29 191.492 421.871 189.581 421.871 187.436C421.871 185.199 422.407 183.171 423.479 181.352C424.551 179.534 426.02 177.996 427.885 176.737C429.796 175.479 432.01 174.523 434.528 173.87C437.045 173.171 439.749 172.821 442.64 172.821C445.763 172.821 448.607 173.148 451.171 173.8C453.735 174.453 455.972 175.409 457.884 176.667C459.842 177.879 461.497 179.325 462.849 181.003L457.254 187.366C456.042 185.921 454.644 184.709 453.059 183.73C451.52 182.751 449.842 182.028 448.024 181.562C446.252 181.049 444.388 180.793 442.43 180.793C440.332 180.793 438.444 181.026 436.766 181.492C435.134 181.959 433.829 182.634 432.85 183.52C431.917 184.406 431.451 185.478 431.451 186.737C431.451 187.809 431.754 188.742 432.36 189.534C433.013 190.28 433.899 190.933 435.017 191.492C436.183 192.005 437.535 192.448 439.073 192.821C440.612 193.147 442.29 193.427 444.108 193.66C446.812 194.079 449.376 194.592 451.8 195.198C454.224 195.804 456.369 196.62 458.233 197.646C460.098 198.671 461.543 199.977 462.569 201.562C463.641 203.147 464.177 205.128 464.177 207.506C464.177 210.769 463.292 213.589 461.52 215.967C459.749 218.298 457.231 220.116 453.968 221.421C450.705 222.68 446.928 223.309 442.64 223.309Z" fill="white"/>
<path d="M292.022 222.61V173.661H315.239C319.388 173.661 323.094 174.29 326.357 175.549C329.667 176.807 332.441 178.556 334.678 180.793C336.963 183.031 338.688 185.618 339.853 188.555C341.019 191.492 341.601 194.686 341.601 198.135C341.601 201.585 341.019 204.802 339.853 207.785C338.688 210.722 336.963 213.31 334.678 215.547C332.394 217.785 329.62 219.533 326.357 220.792C323.094 222.004 319.388 222.61 315.239 222.61H292.022ZM301.113 215.547L300.414 214.219H314.889C317.826 214.219 320.367 213.799 322.511 212.96C324.656 212.121 326.427 210.979 327.826 209.534C329.271 208.088 330.343 206.41 331.042 204.499C331.742 202.541 332.091 200.42 332.091 198.135C332.091 195.851 331.742 193.753 331.042 191.842C330.343 189.884 329.271 188.182 327.826 186.737C326.427 185.245 324.656 184.103 322.511 183.311C320.367 182.472 317.826 182.052 314.889 182.052H300.204L301.113 180.863V215.547Z" fill="white"/>
<path d="M229.224 223.309C225.168 223.309 221.439 222.68 218.036 221.421C214.633 220.116 211.649 218.321 209.085 216.037C206.568 213.752 204.61 211.095 203.211 208.065C201.859 204.988 201.183 201.655 201.183 198.065C201.183 194.476 201.859 191.166 203.211 188.135C204.61 185.059 206.568 182.378 209.085 180.094C211.649 177.809 214.633 176.038 218.036 174.779C221.439 173.474 225.168 172.821 229.224 172.821C233.327 172.821 237.079 173.451 240.483 174.709C243.886 175.968 246.846 177.763 249.363 180.094C251.881 182.378 253.839 185.059 255.237 188.135C256.636 191.166 257.335 194.476 257.335 198.065C257.335 201.655 256.636 204.988 255.237 208.065C253.839 211.095 251.881 213.776 249.363 216.107C246.846 218.391 243.886 220.162 240.483 221.421C237.079 222.68 233.327 223.309 229.224 223.309ZM229.224 214.638C232.021 214.638 234.539 214.219 236.776 213.379C239.061 212.54 241.042 211.375 242.72 209.883C244.445 208.345 245.774 206.573 246.706 204.569C247.639 202.564 248.105 200.396 248.105 198.065C248.105 195.734 247.639 193.567 246.706 191.562C245.774 189.557 244.445 187.809 242.72 186.317C241.042 184.779 239.061 183.59 236.776 182.751C234.539 181.912 232.021 181.492 229.224 181.492C226.52 181.492 224.003 181.912 221.672 182.751C219.388 183.59 217.406 184.756 215.728 186.247C214.05 187.739 212.745 189.487 211.812 191.492C210.926 193.497 210.484 195.688 210.484 198.065C210.484 200.396 210.926 202.587 211.812 204.638C212.745 206.643 214.05 208.391 215.728 209.883C217.406 211.375 219.388 212.54 221.672 213.379C224.003 214.219 226.52 214.638 229.224 214.638Z" fill="white"/>
<path d="M141.951 223.309C137.895 223.309 134.166 222.68 130.763 221.421C127.36 220.116 124.376 218.321 121.812 216.037C119.295 213.752 117.337 211.095 115.938 208.065C114.586 204.988 113.91 201.655 113.91 198.065C113.91 194.476 114.586 191.166 115.938 188.135C117.337 185.059 119.295 182.378 121.812 180.094C124.376 177.809 127.36 176.038 130.763 174.779C134.166 173.474 137.895 172.821 141.951 172.821C146.054 172.821 149.806 173.451 153.21 174.709C156.613 175.968 159.573 177.763 162.09 180.094C164.608 182.378 166.566 185.059 167.964 188.135C169.363 191.166 170.062 194.476 170.062 198.065C170.062 201.655 169.363 204.988 167.964 208.065C166.566 211.095 164.608 213.776 162.09 216.107C159.573 218.391 156.613 220.162 153.21 221.421C149.806 222.68 146.054 223.309 141.951 223.309ZM141.951 214.638C144.748 214.638 147.266 214.219 149.503 213.379C151.788 212.54 153.769 211.375 155.447 209.883C157.172 208.345 158.501 206.573 159.433 204.569C160.366 202.564 160.832 200.396 160.832 198.065C160.832 195.734 160.366 193.567 159.433 191.562C158.501 189.557 157.172 187.809 155.447 186.317C153.769 184.779 151.788 183.59 149.503 182.751C147.266 181.912 144.748 181.492 141.951 181.492C139.247 181.492 136.73 181.912 134.399 182.751C132.115 183.59 130.133 184.756 128.455 186.247C126.777 187.739 125.472 189.487 124.539 191.492C123.653 193.497 123.211 195.688 123.211 198.065C123.211 200.396 123.653 202.587 124.539 204.638C125.472 206.643 126.777 208.391 128.455 209.883C130.133 211.375 132.115 212.54 134.399 213.379C136.73 214.219 139.247 214.638 141.951 214.638Z" fill="white"/>
<path d="M44.9531 222.61V173.661H54.0438V222.61H44.9531ZM48.5894 202.96V194.709H79.7772V202.96H48.5894ZM49.2187 182.052V173.661H82.7841V182.052H49.2187Z" fill="white"/>
<path d="M102.335 269.522C116.014 269.522 128.135 270.735 138.697 273.159C149.259 275.41 158.437 278.353 166.229 281.989C174.02 285.625 180.514 289.262 185.709 292.898L160.774 329.78C155.407 326.836 149.259 324.412 142.333 322.507C135.58 320.43 128.567 318.871 121.295 317.833C114.196 316.62 107.443 316.014 101.036 316.014C94.9758 316.014 89.6078 316.361 84.9326 317.053C80.2574 317.573 76.5341 318.611 73.7637 320.169C70.9934 321.728 69.6085 324.066 69.6084 327.182C69.6084 329.606 71.0798 331.685 74.0234 333.417C77.1402 334.975 80.9501 336.1 85.4521 336.792C90.1273 337.485 94.8024 338.005 99.4775 338.351C104.153 338.697 108.048 339.044 111.165 339.39C121.381 340.429 131.424 341.901 141.294 343.805C151.164 345.537 160.082 348.307 168.047 352.117C176.012 355.926 182.245 361.381 186.747 368.48C191.422 375.579 193.76 385.016 193.76 396.791C193.76 410.123 189.778 421.466 181.812 430.816C173.847 440.166 163.025 447.265 149.346 452.114C135.84 456.789 120.688 459.126 103.893 459.126C88.4819 459.126 74.37 457.741 61.5566 454.97C48.9163 452.2 37.5742 448.651 27.5312 444.322C17.4884 439.82 8.31133 435.058 0 430.037L24.415 387.44C39.1332 396.79 53.9378 403.457 68.8291 407.44C83.7204 411.249 96.967 413.154 108.568 413.154C111.858 413.154 115.667 412.981 119.996 412.634C124.325 412.115 127.962 411.075 130.905 409.517C133.849 407.959 135.32 405.275 135.32 401.465C135.32 399.734 134.714 398.176 133.502 396.791C132.29 395.405 130.385 394.28 127.788 393.415C125.191 392.549 122.074 391.769 118.438 391.077C114.801 390.384 110.559 389.778 105.711 389.258C100.863 388.739 95.408 388.306 89.3477 387.959C77.4002 386.747 66.5783 384.67 56.8818 381.726C47.1853 378.609 38.8734 374.714 31.9473 370.039C25.1943 365.363 19.9129 359.736 16.1035 353.156C12.4673 346.576 10.6494 339.13 10.6494 330.819C10.6494 320.949 13.0735 312.204 17.9219 304.585C22.7702 296.967 29.4365 290.56 37.9209 285.366C46.4055 280.171 56.102 276.275 67.0107 273.677C78.0927 270.907 89.8678 269.522 102.335 269.522ZM550.014 269.522C566.81 269.522 582.134 271.946 595.986 276.794C610.012 281.47 622.133 288.136 632.349 296.793C642.565 305.278 650.443 315.321 655.984 326.922C661.698 338.35 664.556 350.731 664.556 364.064C664.556 377.743 661.698 390.384 655.984 401.985C650.443 413.413 642.565 423.456 632.349 432.114C622.133 440.598 610.012 447.265 595.986 452.114C582.134 456.789 566.896 459.126 550.273 459.126C533.304 459.126 517.807 456.789 503.781 452.114C489.756 447.265 477.635 440.598 467.419 432.114C457.203 423.629 449.324 413.673 443.783 402.245C438.242 390.643 435.472 378.003 435.472 364.324C435.472 350.645 438.242 338.091 443.783 326.663C449.497 315.061 457.463 305.018 467.679 296.534C477.895 288.049 489.929 281.47 503.781 276.794C517.807 271.946 533.218 269.522 550.014 269.522ZM271.824 342.247H353.12V274.716H409.223V456.529H353.12V391.077H271.824V456.529H215.722V274.716H271.824V342.247ZM745.339 351.078C746.551 354.887 747.85 359.389 749.235 364.583C750.621 369.605 751.919 374.887 753.131 380.427C753.442 381.673 753.738 382.906 754.023 384.125C754.861 380.518 755.864 376.774 757.027 372.895C759.278 365.796 761.789 358.61 764.56 351.337L787.676 292.638H831.631L854.746 351.337C857.516 358.61 860.027 365.796 862.278 372.895C863.442 376.774 864.444 380.518 865.282 384.125C865.567 382.906 865.863 381.673 866.175 380.427C867.387 374.886 868.685 369.605 870.07 364.583C871.456 359.389 872.755 354.887 873.967 351.078L897.862 274.716H955.003L896.044 456.529H847.214L809.653 364.359L772.092 456.529H723.263L664.303 274.716H721.444L745.339 351.078ZM550.014 321.468C541.702 321.468 533.997 322.594 526.897 324.845C519.971 326.923 513.91 329.953 508.716 333.935C503.521 337.744 499.539 342.247 496.769 347.442C493.998 352.636 492.612 358.264 492.612 364.324C492.612 370.384 493.998 376.012 496.769 381.207C499.539 386.401 503.521 390.99 508.716 394.972C513.91 398.782 519.971 401.812 526.897 404.063C533.997 406.141 541.702 407.18 550.014 407.18C558.325 407.18 566.031 406.141 573.13 404.063C580.229 401.812 586.289 398.782 591.311 394.972C596.332 390.99 600.229 386.401 602.999 381.207C605.943 376.012 607.414 370.384 607.414 364.324C607.414 358.264 605.942 352.636 602.999 347.442C600.229 342.247 596.332 337.744 591.311 333.935C586.289 329.953 580.229 326.923 573.13 324.845C566.031 322.594 558.325 321.468 550.014 321.468Z" fill="white"/>
<path d="M102.335 269.522C116.014 269.522 128.135 270.735 138.697 273.159C149.259 275.41 158.437 278.353 166.229 281.989C174.02 285.625 180.514 289.262 185.709 292.898L160.774 329.78C155.407 326.836 149.259 324.412 142.333 322.507C135.58 320.43 128.567 318.871 121.295 317.833C114.196 316.62 107.443 316.014 101.036 316.014C94.9758 316.014 89.6078 316.361 84.9326 317.053C80.2574 317.573 76.5341 318.611 73.7637 320.169C70.9934 321.728 69.6085 324.066 69.6084 327.182C69.6084 329.606 71.0798 331.685 74.0234 333.417C77.1402 334.975 80.9501 336.1 85.4521 336.792C90.1273 337.485 94.8024 338.005 99.4775 338.351C104.153 338.697 108.048 339.044 111.165 339.39C121.381 340.429 131.424 341.901 141.294 343.805C151.164 345.537 160.082 348.307 168.047 352.117C176.012 355.926 182.245 361.381 186.747 368.48C191.422 375.579 193.76 385.016 193.76 396.791C193.76 410.123 189.778 421.466 181.812 430.816C173.847 440.166 163.025 447.265 149.346 452.114C135.84 456.789 120.688 459.126 103.893 459.126C88.4819 459.126 74.37 457.741 61.5566 454.97C48.9163 452.2 37.5742 448.651 27.5312 444.322C17.4884 439.82 8.31133 435.058 0 430.037L24.415 387.44C39.1332 396.79 53.9378 403.457 68.8291 407.44C83.7204 411.249 96.967 413.154 108.568 413.154C111.858 413.154 115.667 412.981 119.996 412.634C124.325 412.115 127.962 411.075 130.905 409.517C133.849 407.959 135.32 405.275 135.32 401.465C135.32 399.734 134.714 398.176 133.502 396.791C132.29 395.405 130.385 394.28 127.788 393.415C125.191 392.549 122.074 391.769 118.438 391.077C114.801 390.384 110.559 389.778 105.711 389.258C100.863 388.739 95.408 388.306 89.3477 387.959C77.4002 386.747 66.5783 384.67 56.8818 381.726C47.1853 378.609 38.8734 374.714 31.9473 370.039C25.1943 365.363 19.9129 359.736 16.1035 353.156C12.4673 346.576 10.6494 339.13 10.6494 330.819C10.6494 320.949 13.0735 312.204 17.9219 304.585C22.7702 296.967 29.4365 290.56 37.9209 285.366C46.4055 280.171 56.102 276.275 67.0107 273.677C78.0927 270.907 89.8678 269.522 102.335 269.522ZM550.014 269.522C566.81 269.522 582.134 271.946 595.986 276.794C610.012 281.47 622.133 288.136 632.349 296.793C642.565 305.278 650.443 315.321 655.984 326.922C661.698 338.35 664.556 350.731 664.556 364.064C664.556 377.743 661.698 390.384 655.984 401.985C650.443 413.413 642.565 423.456 632.349 432.114C622.133 440.598 610.012 447.265 595.986 452.114C582.134 456.789 566.896 459.126 550.273 459.126C533.304 459.126 517.807 456.789 503.781 452.114C489.756 447.265 477.635 440.598 467.419 432.114C457.203 423.629 449.324 413.673 443.783 402.245C438.242 390.643 435.472 378.003 435.472 364.324C435.472 350.645 438.242 338.091 443.783 326.663C449.497 315.061 457.463 305.018 467.679 296.534C477.895 288.049 489.929 281.47 503.781 276.794C517.807 271.946 533.218 269.522 550.014 269.522ZM271.824 342.247H353.12V274.716H409.223V456.529H353.12V391.077H271.824V456.529H215.722V274.716H271.824V342.247ZM745.339 351.078C746.551 354.887 747.85 359.389 749.235 364.583C750.621 369.605 751.919 374.887 753.131 380.427C753.442 381.673 753.738 382.906 754.023 384.125C754.861 380.518 755.864 376.774 757.027 372.895C759.278 365.796 761.789 358.61 764.56 351.337L787.676 292.638H831.631L854.746 351.337C857.516 358.61 860.027 365.796 862.278 372.895C863.442 376.774 864.444 380.518 865.282 384.125C865.567 382.906 865.863 381.673 866.175 380.427C867.387 374.886 868.685 369.605 870.07 364.583C871.456 359.389 872.755 354.887 873.967 351.078L897.862 274.716H955.003L896.044 456.529H847.214L809.653 364.359L772.092 456.529H723.263L664.303 274.716H721.444L745.339 351.078ZM550.014 321.468C541.702 321.468 533.997 322.594 526.897 324.845C519.971 326.923 513.91 329.953 508.716 333.935C503.521 337.744 499.539 342.247 496.769 347.442C493.998 352.636 492.612 358.264 492.612 364.324C492.612 370.384 493.998 376.012 496.769 381.207C499.539 386.401 503.521 390.99 508.716 394.972C513.91 398.782 519.971 401.812 526.897 404.063C533.997 406.141 541.702 407.18 550.014 407.18C558.325 407.18 566.031 406.141 573.13 404.063C580.229 401.812 586.289 398.782 591.311 394.972C596.332 390.99 600.229 386.401 602.999 381.207C605.943 376.012 607.414 370.384 607.414 364.324C607.414 358.264 605.942 352.636 602.999 347.442C600.229 342.247 596.332 337.744 591.311 333.935C586.289 329.953 580.229 326.923 573.13 324.845C566.031 322.594 558.325 321.468 550.014 321.468Z" fill="url(#paint0_linear_191_2771)"/>
<defs>
<linearGradient id="paint0_linear_191_2771" x1="1153.68" y1="108.596" x2="1153.71" y2="496.568" gradientUnits="userSpaceOnUse">
<stop offset="0.211538" stop-color="#AEFF56"/>
<stop offset="0.629808" stop-color="#3ACFFC"/>
<stop offset="0.951923" stop-color="#0A3ECC"/>
</linearGradient>
</defs>
</svg>
