<svg width="293" height="140" viewBox="0 0 293 140" fill="none" xmlns="http://www.w3.org/2000/svg">
<g clip-path="url(#clip0_1397_1189)">
<path d="M0 35.5895C0 23.0007 0 16.7064 2.48876 11.9153C4.586 7.87793 7.87793 4.586 11.9153 2.48876C16.7064 0 23.0007 0 35.5895 0H104.411C116.999 0 123.294 0 128.085 2.48876C132.122 4.586 135.414 7.87793 137.511 11.9153C140 16.7064 140 23.0007 140 35.5895V104.411C140 116.999 140 123.294 137.511 128.085C135.414 132.122 132.122 135.414 128.085 137.511C123.294 140 116.999 140 104.411 140H35.5895C23.0007 140 16.7064 140 11.9153 137.511C7.87793 135.414 4.586 132.122 2.48876 128.085C0 123.294 0 116.999 0 104.411V35.5895Z" fill="#040486"/>
<path d="M80.1564 108.914C80.1564 108.944 80.1564 108.97 80.1564 109H60.3551C60.3551 108.97 60.3551 108.944 60.3551 108.914C60.3551 103.47 64.7964 99.0394 70.2541 99.0394C75.7117 99.0394 80.1531 103.47 80.1531 108.914H80.1564ZM79.9023 56.3333H101.482C100.337 53.328 98.5784 50.563 96.2324 48.2227L84.7363 36.7479C82.387 34.4075 79.6152 32.6531 76.6026 31.5142V53.0417C76.6026 54.8554 78.0809 56.3333 79.9023 56.3333ZM103 64.5131V92.5417C103 101.531 95.7341 108.862 86.7524 108.997C86.7524 108.97 86.7524 108.944 86.7524 108.914C86.7524 99.8393 79.3513 92.4561 70.2541 92.4561C61.1569 92.4561 53.7557 99.8393 53.7557 108.914C53.7557 108.944 53.7557 108.97 53.7557 109H53.4984C44.4012 109 37 101.617 37 92.5417V46.4583C37.0066 37.3832 44.4078 30 53.5049 30H68.403C68.9408 30 69.4721 30.0428 70.0033 30.079V53.0417C70.0033 58.4861 74.4447 62.9167 79.9023 62.9167H102.921C102.957 63.4466 103 63.9766 103 64.5131ZM81.8062 77.6436C81.8062 71.2907 76.6257 66.1227 70.2574 66.1227C63.889 66.1227 58.7085 71.2907 58.7085 77.6436C58.7085 83.9965 63.889 89.1644 70.2574 89.1644C76.6257 89.1644 81.8062 83.9965 81.8062 77.6436ZM70.2574 72.7061C67.5285 72.7061 65.3079 74.9214 65.3079 77.6436C65.3079 80.3658 67.5285 82.5811 70.2574 82.5811C72.9862 82.5811 75.2069 80.3658 75.2069 77.6436C75.2069 74.9214 72.9862 72.7061 70.2574 72.7061Z" fill="white"/>
</g>
<path d="M262.132 38.773C263.197 38.773 264.059 37.9119 264.059 36.8492C264.059 35.7866 263.196 34.9238 262.132 34.9238C261.069 34.9238 260.207 35.7849 260.207 36.8492C260.207 37.9135 261.072 38.773 262.132 38.773Z" fill="#6E809C"/>
<path d="M262.133 44.6127C263.251 44.6127 264.157 43.7077 264.157 42.5914C264.157 41.4752 263.25 40.5669 262.133 40.5669C261.016 40.5669 260.109 41.4736 260.109 42.5914C260.109 43.7093 261.016 44.6127 262.133 44.6127Z" fill="#6E809C"/>
<path d="M265.952 31.0957C265.952 32.2119 266.859 33.1186 267.976 33.1186C269.093 33.1186 270 32.2119 270 31.0957C270 29.9794 269.096 29.0728 267.976 29.0728C266.856 29.0728 265.952 29.9794 265.952 31.0957Z" fill="#6E809C"/>
<path d="M260.109 31.0957C260.109 32.2119 261.016 33.1186 262.133 33.1186C263.25 33.1186 264.157 32.2119 264.157 31.0957C264.157 29.9794 263.251 29.0728 262.133 29.0728C261.014 29.0728 260.109 29.9794 260.109 31.0957Z" fill="#6E809C"/>
<path d="M254.267 31.0957C254.267 32.2119 255.171 33.1186 256.291 33.1186C257.411 33.1186 258.315 32.2119 258.315 31.0957C258.315 29.9794 257.408 29.0728 256.291 29.0728C255.174 29.0728 254.267 29.9794 254.267 31.0957Z" fill="#6E809C"/>
<path d="M191.31 49.9275V37.4179H194.089V42.6352L200.656 37.4179H204.645L196.801 43.3095L205.608 49.9275H201.184L194.089 44.4258V49.9275H191.31Z" fill="#6E809C"/>
<path d="M223.648 49.9275V37.4179H226.531L226.54 49.9275H223.648Z" fill="#6E809C"/>
<path d="M241.852 40.7746H239.28C239.277 40.487 239.274 40.1994 239.274 39.9102C239.273 39.6589 239.177 39.5333 238.988 39.5333H231.47C231.168 39.5333 230.99 39.7981 230.99 39.9898V41.8763C230.99 42.3052 231.33 42.3052 231.527 42.3052H239.271C241.851 42.3052 241.851 43.7042 241.851 44.6434V47.8085C241.851 48.7363 241.851 49.9241 239.939 49.9241H230.979C228.989 49.9241 228.415 49.2677 228.415 47.5567V46.4226H230.989V47.1684C230.989 47.2139 230.989 47.5583 231.517 47.5583H238.999C239.179 47.5583 239.269 47.4733 239.269 47.3032V44.8611C239.269 44.7539 239.111 44.6482 239.072 44.645H230.989C230.195 44.645 228.415 44.645 228.415 42.6952V39.53C228.415 38.1538 229.169 37.4112 230.361 37.4112H239.36C240.719 37.4112 241.851 38.1229 241.851 39.5284V40.7698L241.852 40.7746Z" fill="#6E809C"/>
<path d="M189.289 37.4161V39.5382H179.329V42.3459H185.138V44.4289H179.329V47.6152H189.289L189.288 49.9257H176.499V37.4161H189.289Z" fill="#6E809C"/>
<path d="M221.492 37.4161H218.928V45.8442L208.714 37.4161H206.889V49.9257H209.41V41.5871L219.537 49.9257H221.492V37.4161Z" fill="#6E809C"/>
<path d="M160 37.4161H174.457V39.6633H168.682V49.9257H165.752V39.6633H160V37.4161Z" fill="#6E809C"/>
<path d="M252.329 37.4161H249.607L242.499 49.9257H245.451L246.947 47.1538H254.984L256.452 49.9257H259.403L252.329 37.4161ZM250.95 44.8871L248.163 44.8839L250.95 39.8843L250.992 39.8046L253.737 44.892L250.95 44.8855V44.8871Z" fill="#6E809C"/>
<path d="M196.85 67.3172V105.927H187.445V90.0322H172.815V105.927H163.41V67.3172H172.815V82.4422H187.445V67.3172H196.85ZM202.044 86.5672C202.044 82.7539 202.869 79.3622 204.519 76.3922C206.169 73.3856 208.461 71.0572 211.394 69.4072C214.364 67.7206 217.719 66.8772 221.459 66.8772C226.043 66.8772 229.966 68.0872 233.229 70.5072C236.493 72.9272 238.674 76.2272 239.774 80.4072H229.434C228.664 78.7939 227.564 77.5656 226.134 76.7222C224.741 75.8789 223.146 75.4572 221.349 75.4572C218.453 75.4572 216.106 76.4656 214.309 78.4822C212.513 80.4989 211.614 83.1939 211.614 86.5672C211.614 89.9406 212.513 92.6356 214.309 94.6522C216.106 96.6689 218.453 97.6772 221.349 97.6772C223.146 97.6772 224.741 97.2556 226.134 96.4122C227.564 95.5689 228.664 94.3406 229.434 92.7272H239.774C238.674 96.9072 236.493 100.207 233.229 102.627C229.966 105.011 226.043 106.202 221.459 106.202C217.719 106.202 214.364 105.377 211.394 103.727C208.461 102.041 206.169 99.7122 204.519 96.7422C202.869 93.7722 202.044 90.3806 202.044 86.5672ZM289.259 67.3172V105.927H279.854V82.7722L271.219 105.927H263.629L254.939 82.7172V105.927H245.534V67.3172H256.644L267.479 94.0472L278.204 67.3172H289.259Z" fill="#040486"/>
<defs>
<clipPath id="clip0_1397_1189">
<rect width="140" height="140" fill="white"/>
</clipPath>
</defs>
</svg>
