<svg width="270" height="140" viewBox="0 0 270 140" fill="none" xmlns="http://www.w3.org/2000/svg">
<g clip-path="url(#clip0_4613_3403)">
<path d="M0 35.5895C0 23.0007 0 16.7064 2.48876 11.9153C4.586 7.87793 7.87793 4.586 11.9153 2.48876C16.7064 0 23.0007 0 35.5895 0H104.411C116.999 0 123.294 0 128.085 2.48876C132.122 4.586 135.414 7.87793 137.511 11.9153C140 16.7064 140 23.0007 140 35.5895V104.411C140 116.999 140 123.294 137.511 128.085C135.414 132.122 132.122 135.414 128.085 137.511C123.294 140 116.999 140 104.411 140H35.5895C23.0007 140 16.7064 140 11.9153 137.511C7.87793 135.414 4.586 132.122 2.48876 128.085C0 123.294 0 116.999 0 104.411V35.5895Z" fill="#040486"/>
<path d="M84.078 61.83C83.1842 60.2657 81.1983 59.7225 79.6415 60.629L77.7954 61.6991C76.5246 60.4882 74.9678 59.5981 73.2485 59.0778V56.908C73.2485 55.1016 71.7957 53.6355 69.9984 53.6355C68.201 53.6355 66.7482 55.1016 66.7482 56.908V59.0778C65.0289 59.5981 63.4754 60.4882 62.2013 61.6991L60.3552 60.629C58.7984 59.7225 56.8093 60.2657 55.9188 61.83C55.0218 63.3976 55.558 65.3971 57.1116 66.3004L58.9544 67.3705C58.7562 68.2181 58.6229 69.0919 58.6229 70.0016C58.6229 70.9114 58.7562 71.7819 58.9544 72.6295L57.1083 73.7029C55.5515 74.6062 55.0185 76.609 55.9188 78.1733C56.5233 79.2205 57.6121 79.8096 58.7367 79.8096C59.2892 79.8096 59.8482 79.6688 60.3585 79.371L62.2013 78.2976C63.4721 79.5085 65.0289 80.3986 66.745 80.919V83.0887C66.745 84.8984 68.1978 86.3613 69.9951 86.3613C71.7924 86.3613 73.2453 84.8984 73.2453 83.0887V80.919C74.9646 80.3986 76.5181 79.5085 77.7889 78.2976L79.635 79.371C80.1453 79.6688 80.7043 79.8096 81.2536 79.8096C82.3781 79.8096 83.4734 79.2205 84.0715 78.17C84.9685 76.6024 84.4322 74.6029 82.8787 73.7029L81.0358 72.6328C81.2341 71.7852 81.3673 70.9114 81.3673 70.0016C81.3673 69.0919 81.2341 68.2214 81.0358 67.3705L82.8787 66.3004C84.4355 65.4004 84.9717 63.3976 84.0715 61.83H84.078ZM69.9984 74.9072C67.3105 74.9072 65.1232 72.7048 65.1232 69.9984C65.1232 67.2919 67.3105 65.0895 69.9984 65.0895C72.6862 65.0895 74.8736 67.2919 74.8736 69.9984C74.8736 72.7048 72.6862 74.9072 69.9984 74.9072ZM99.2496 60.1348C99.2041 60.1348 99.1651 60.1479 99.1196 60.1479L93.3636 50.4905C94.9854 48.7364 95.9995 46.4031 95.9995 43.8177C95.9995 38.3951 91.6345 34 86.2491 34C82.0109 34 78.439 36.7391 77.0967 40.5452H62.9033C61.561 36.7391 57.9891 34 53.7509 34C48.3655 34 44.0005 38.3951 44.0005 43.8177C44.0005 46.4031 45.0146 48.7364 46.6364 50.4905L40.8804 60.1479C40.8349 60.1479 40.7959 60.1348 40.7504 60.1348C35.3649 60.1348 31 64.5299 31 69.9525C31 75.3752 35.3649 79.7703 40.7504 79.7703C40.7764 79.7703 40.8024 79.7637 40.8284 79.7637L46.6364 89.5095C45.0146 91.2636 44.0005 93.5969 44.0005 96.1823C44.0005 101.605 48.3655 106 53.7509 106C57.9891 106 61.561 103.261 62.9033 99.4548H77.0967C78.439 103.261 82.0109 106 86.2491 106C91.6345 106 95.9995 101.605 95.9995 96.1823C95.9995 93.5969 94.9854 91.2636 93.3636 89.5095L99.1716 79.7637C99.1976 79.7637 99.2236 79.7703 99.2496 79.7703C104.635 79.7703 109 75.3752 109 69.9525C109 64.5299 104.635 60.1348 99.2496 60.1348ZM87.5784 86.4954C87.1396 86.4333 86.7041 86.3613 86.2491 86.3613C82.0109 86.3613 78.439 89.1004 77.0967 92.9064H62.9033C61.561 89.1004 57.9891 86.3613 53.7509 86.3613C53.2959 86.3613 52.8604 86.4365 52.4216 86.4954L47.0134 77.4206C49.1293 75.6207 50.5008 72.96 50.5008 69.9525C50.5008 66.9614 49.1455 64.3172 47.0492 62.514L52.4216 53.498C52.8604 53.5602 53.2959 53.6322 53.7509 53.6322C57.9891 53.6322 61.561 50.893 62.9033 47.087H77.0967C78.439 50.893 82.0109 53.6322 86.2491 53.6322C86.7041 53.6322 87.1396 53.5569 87.5784 53.498L92.9508 62.514C90.8545 64.3139 89.4992 66.9614 89.4992 69.9525C89.4992 72.96 90.8707 75.6174 92.9866 77.4206L87.5784 86.4954Z" fill="white"/>
</g>
<path d="M262.132 38.7003C263.197 38.7003 264.059 37.8391 264.059 36.7765C264.059 35.7138 263.196 34.851 262.132 34.851C261.069 34.851 260.207 35.7122 260.207 36.7765C260.207 37.8407 261.072 38.7003 262.132 38.7003Z" fill="#6E809C"/>
<path d="M262.133 44.54C263.251 44.54 264.157 43.6349 264.157 42.5187C264.157 41.4024 263.25 40.4941 262.133 40.4941C261.016 40.4941 260.109 41.4008 260.109 42.5187C260.109 43.6366 261.016 44.54 262.133 44.54Z" fill="#6E809C"/>
<path d="M265.952 31.0229C265.952 32.1392 266.859 33.0458 267.976 33.0458C269.093 33.0458 270 32.1392 270 31.0229C270 29.9067 269.096 29 267.976 29C266.856 29 265.952 29.9067 265.952 31.0229Z" fill="#6E809C"/>
<path d="M260.109 31.0229C260.109 32.1392 261.016 33.0458 262.133 33.0458C263.25 33.0458 264.157 32.1392 264.157 31.0229C264.157 29.9067 263.251 29 262.133 29C261.014 29 260.109 29.9067 260.109 31.0229Z" fill="#6E809C"/>
<path d="M254.267 31.0229C254.267 32.1392 255.171 33.0458 256.291 33.0458C257.411 33.0458 258.315 32.1392 258.315 31.0229C258.315 29.9067 257.408 29 256.291 29C255.174 29 254.267 29.9067 254.267 31.0229Z" fill="#6E809C"/>
<path d="M191.31 49.8547V37.3451H194.089V42.5625L200.656 37.3451H204.645L196.801 43.2368L205.608 49.8547H201.184L194.089 44.353V49.8547H191.31Z" fill="#6E809C"/>
<path d="M223.648 49.8547V37.3451H226.531L226.54 49.8547H223.648Z" fill="#6E809C"/>
<path d="M241.852 40.7019H239.28C239.277 40.4143 239.274 40.1267 239.274 39.8375C239.273 39.5862 239.177 39.4605 238.988 39.4605H231.47C231.168 39.4605 230.99 39.7254 230.99 39.9171V41.8035C230.99 42.2325 231.33 42.2325 231.527 42.2325H239.271C241.851 42.2325 241.851 43.6315 241.851 44.5706V47.7358C241.851 48.6636 241.851 49.8513 239.939 49.8513H230.979C228.989 49.8513 228.415 49.1949 228.415 47.4839V46.3498H230.989V47.0956C230.989 47.1411 230.989 47.4856 231.517 47.4856H238.999C239.179 47.4856 239.269 47.4005 239.269 47.2305V44.7883C239.269 44.6811 239.111 44.5755 239.072 44.5722H230.989C230.195 44.5722 228.415 44.5722 228.415 42.6224V39.4573C228.415 38.081 229.169 37.3385 230.361 37.3385H239.36C240.719 37.3385 241.851 38.0502 241.851 39.4556V40.697L241.852 40.7019Z" fill="#6E809C"/>
<path d="M189.289 37.3434V39.4654H179.329V42.2731H185.138V44.3562H179.329V47.5425H189.289L189.288 49.853H176.499V37.3434H189.289Z" fill="#6E809C"/>
<path d="M221.492 37.3434H218.928V45.7714L208.714 37.3434H206.889V49.853H209.41V41.5143L219.537 49.853H221.492V37.3434Z" fill="#6E809C"/>
<path d="M160 37.3434H174.457V39.5905H168.682V49.853H165.752V39.5905H160V37.3434Z" fill="#6E809C"/>
<path d="M252.329 37.3434H249.607L242.499 49.853H245.451L246.947 47.081H254.984L256.452 49.853H259.403L252.329 37.3434ZM250.95 44.8144L248.163 44.8111L250.95 39.8115L250.992 39.7319L253.737 44.8193L250.95 44.8128V44.8144Z" fill="#6E809C"/>
<path d="M172.815 74.925V82.735H185.41V89.995H172.815V98.465H187.06V106H163.41V67.39H187.06V74.925H172.815ZM212.856 106L204.826 91.425H202.571V106H193.166V67.39H208.951C211.994 67.39 214.579 67.9217 216.706 68.985C218.869 70.0483 220.483 71.515 221.546 73.385C222.609 75.2183 223.141 77.2717 223.141 79.545C223.141 82.1117 222.408 84.4033 220.941 86.42C219.511 88.4367 217.384 89.8667 214.561 90.71L223.471 106H212.856ZM202.571 84.77H208.401C210.124 84.77 211.408 84.3483 212.251 83.505C213.131 82.6617 213.571 81.47 213.571 79.93C213.571 78.4633 213.131 77.3083 212.251 76.465C211.408 75.6217 210.124 75.2 208.401 75.2H202.571V84.77ZM258.47 79.82C258.47 82.0567 257.956 84.11 256.93 85.98C255.903 87.8133 254.326 89.2983 252.2 90.435C250.073 91.5717 247.433 92.14 244.28 92.14H238.45V106H229.045V67.39H244.28C247.36 67.39 249.963 67.9217 252.09 68.985C254.216 70.0483 255.811 71.515 256.875 73.385C257.938 75.255 258.47 77.4 258.47 79.82ZM243.565 84.66C245.361 84.66 246.7 84.2383 247.58 83.395C248.46 82.5517 248.9 81.36 248.9 79.82C248.9 78.28 248.46 77.0883 247.58 76.245C246.7 75.4017 245.361 74.98 243.565 74.98H238.45V84.66H243.565Z" fill="#040486"/>
<defs>
<clipPath id="clip0_4613_3403">
<rect width="140" height="140" fill="white"/>
</clipPath>
</defs>
</svg>
