<svg width="252" height="252" viewBox="0 0 252 252" fill="none" xmlns="http://www.w3.org/2000/svg">
<path d="M125.982 157.302C143.038 157.302 156.84 143.337 156.84 126.105C156.84 108.873 143.012 94.8817 125.982 94.8817C108.951 94.8817 95.1495 108.846 95.1495 126.105C95.1495 143.363 109.003 157.302 125.982 157.302Z" fill="#F6BE00"/>
<path d="M125.989 252C143.905 252 158.409 237.324 158.409 219.222C158.409 201.121 143.878 186.392 125.989 186.392C108.099 186.392 93.5677 201.094 93.5677 219.222C93.5677 237.35 108.099 252 125.989 252Z" fill="#F6BE00"/>
<path d="M187.159 32.8041C187.159 50.9057 201.689 65.6083 219.579 65.6083C237.469 65.6083 252 50.9057 252 32.8041C252 14.7026 237.521 0 219.579 0C201.637 0 187.159 14.7026 187.159 32.8041Z" fill="#040486"/>
<path d="M93.5677 32.8041C93.5677 50.9057 108.099 65.6083 125.989 65.6083C143.878 65.6083 158.409 50.9057 158.409 32.8041C158.409 14.7026 143.905 0 125.989 0C108.072 0 93.5677 14.7026 93.5677 32.8041Z" fill="#38AA51"/>
<path d="M0 32.8041C0 50.9057 14.4787 65.6083 32.4208 65.6083C50.3629 65.6083 64.8415 50.9057 64.8415 32.8041C64.8415 14.7026 50.3108 0 32.4208 0C14.5308 0 0 14.7026 0 32.8041Z" fill="#040486"/>
</svg>
